<?xml version="1.0" encoding="utf-8"?>
<!-- Generator: Adobe Illustrator 21.0.0, SVG Export Plug-In . SVG Version: 6.00 Build 0)  -->
<svg version="1.1" id="Layer_1" xmlns="http://www.w3.org/2000/svg" xmlns:xlink="http://www.w3.org/1999/xlink" x="0px" y="0px"
	 viewBox="0 0 32 32" style="enable-background:new 0 0 32 32;" xml:space="preserve">
<style type="text/css">
	.st0{fill:#BCBAB9;}
</style>
<title>about</title>
<path class="st0" d="M14.7,8.2c-0.4,0.4-0.6,0.9-0.6,1.4c0,0.5,0.2,1,0.6,1.4c0.4,0.4,0.9,0.6,1.4,0.6c1.1,0,2.1-0.9,2.1-2.1
	c0-0.5-0.2-1-0.6-1.4c-0.4-0.4-0.9-0.5-1.5-0.5C15.5,7.6,15,7.8,14.7,8.2z"/>
<rect x="14.6" y="13.1" class="st0" width="3" height="11.7"/>
<rect y="0" class="st0" width="2.5" height="32"/>
<rect x="29.5" y="3" class="st0" width="2.5" height="29"/>
<rect class="st0" width="16" height="2.5"/>
<rect x="0" y="29.5" class="st0" width="32" height="2.5"/>
</svg>
