<?xml version="1.0" encoding="utf-8"?>
<!-- Generator: Adobe Illustrator 21.0.0, SVG Export Plug-In . SVG Version: 6.00 Build 0)  -->
<svg version="1.1" id="Layer_1" xmlns="http://www.w3.org/2000/svg" xmlns:xlink="http://www.w3.org/1999/xlink" x="0px" y="0px"
	 viewBox="0 0 31.8 26.5" style="enable-background:new 0 0 31.8 26.5;" xml:space="preserve">
<style type="text/css">
	.st0{fill:#BCBAB9;}
</style>
<title>weibo</title>
<path class="st0" d="M10.7,14.7c-2.5,0.6-4.1,3.1-3.6,5.6c1,2.4,3.7,3.6,6.1,2.7c2.5-0.6,4.1-3.1,3.6-5.6
	C15.8,15,13.1,13.8,10.7,14.7z M10.8,21.2c-0.8,0.3-1.7,0-2.1-0.8c-0.1-0.9,0.4-1.7,1.3-1.9c0.8-0.3,1.7,0,2.1,0.8
	C12.2,20.2,11.7,21,10.8,21.2z M13.2,18.6c-0.2,0.2-0.6,0.2-0.8,0c-0.2-0.2-0.2-0.6,0-0.8c0.1-0.1,0.2-0.1,0.2-0.1h0.3
	c0.2-0.2,0.6-0.2,0.8,0c0.2,0.2,0.2,0.6,0,0.8c-0.1,0.1-0.2,0.1-0.2,0.1H13.2z"/>
<path class="st0" d="M23.3,13c0.8-1.2,0.9-2.7,0.2-4c-1.2-1.5-4.1-1.2-7.4,0.4c-0.2,0.1-0.4-0.1-0.5-0.3c0-0.1,0-0.2,0-0.2
	c0.6-1.7,0.6-3.1-0.1-3.9C14.8,4.2,9.1,5,5,8.9s-5.5,7.3-4.8,9.4c0,0.2,0,0.3,0,0.5c0.3,4.8,6.8,8.3,14.4,7.7s13.2-4.9,13.2-9.7
	C27.8,15,26,13.7,23.3,13z M13.4,24.6c-5.2,0.4-9.6-2.1-9.8-5.5s3.8-6.5,8.9-6.9s9.5,2.1,9.8,5.5S18.5,24.2,13.4,24.6z"/>
<path class="st0" d="M26.4,10.2h0.2c0.5,0,1-0.4,1.1-0.9c0.4-2.5-1.3-4.7-3.8-5.1h-1.3c-0.6,0.1-1,0.6-1,1.2s0.6,1,1.2,1l0,0
	c1.3-0.2,2.4,0.7,2.6,2c0,0,0,0,0,0v0.2c0,0.1,0,0.2,0,0.3C25.4,9.5,25.8,10.1,26.4,10.2C26.4,10.2,26.4,10.2,26.4,10.2z"/>
<path class="st0" d="M23.3,0h-1.5c-0.6,0.1-1,0.7-0.9,1.3c0.1,0.6,0.7,1,1.3,0.9h1.1c3.5,0,6.3,2.8,6.3,6.3c0,0.5-0.1,1.1-0.2,1.6
	c-0.1,0.6,0.2,1.2,0.9,1.4s1.2-0.2,1.4-0.9c1.1-4.5-1.7-9.1-6.2-10.3L23.3,0z"/>
</svg>
