<?xml version="1.0" encoding="UTF-8" standalone="no"?>
<svg width="60px" height="60px" viewBox="0 0 60 60" version="1.1" xmlns="http://www.w3.org/2000/svg" xmlns:xlink="http://www.w3.org/1999/xlink" xmlns:sketch="http://www.bohemiancoding.com/sketch/ns">
    <!-- Generator: Sketch 3.3.3 (12072) - http://www.bohemiancoding.com/sketch -->
    <title>500</title>
    <desc>Created with Sketch.</desc>
    <defs></defs>
    <g id="soical" stroke="none" stroke-width="1" fill="none" fill-rule="evenodd" sketch:type="MSPage">
        <g id="social" sketch:type="MSArtboardGroup" transform="translate(-373.000000, -238.000000)">
            <g id="slices" sketch:type="MSLayerGroup" transform="translate(173.000000, 138.000000)"></g>
            <g id="square-flat" sketch:type="MSLayerGroup" transform="translate(173.000000, 138.000000)" fill="#424242">
                <path d="M202.995937,100 L257.004063,100 C258.658673,100 260,101.33731 260,102.995937 L260,157.004063 C260,158.658673 258.66269,160 257.004063,160 L202.995937,160 C201.341327,160 200,158.66269 200,157.004063 L200,102.995937 C200,101.341327 201.33731,100 202.995937,100 Z" id="square-13" sketch:type="MSShapeGroup"></path>
            </g>
            <g id="icon" sketch:type="MSLayerGroup" transform="translate(182.000000, 150.000000)" fill="#FFFFFF">
                <path d="M212.35884,125.995171 C210.934409,127.512725 209.174253,128.30344 207.094871,128.376356 C205.597937,128.428867 204.132693,128.238357 202.768342,127.592798 C200.483148,126.51158 199.224347,124.714014 199.078662,122.175297 C199.075023,122.111761 199.078226,122.04779 199.078226,121.964527 L203.216655,121.964527 C203.246161,122.119207 203.270765,122.283994 203.309589,122.445299 C203.612072,123.702956 204.35685,124.569149 205.630889,124.884168 C206.995095,125.221623 208.203765,124.904283 209.148435,123.827417 C210.290037,122.526048 210.470906,120.342627 209.567582,118.867188 C208.944564,117.849554 208.018965,117.32686 206.825776,117.255008 C205.4705,117.17334 204.372331,117.634819 203.5633,118.741036 C203.513994,118.808488 203.411791,118.877584 203.333756,118.878164 C202.1692,118.886481 201.004643,118.883532 199.840038,118.882033 C199.810241,118.882033 199.780492,118.867865 199.722597,118.853021 C200.392883,115.106933 201.061859,111.367807 201.733213,107.615385 L213.157971,107.615385 L213.157971,111.01251 L212.872134,111.01251 C210.243692,111.01251 207.615299,111.015122 204.986906,111.007627 C204.774639,111.006998 204.703446,111.066134 204.667777,111.276952 C204.431294,112.674543 204.177971,114.069329 203.93154,115.465276 C203.919893,115.531326 203.921688,115.599697 203.911643,115.750751 C205.462541,114.194369 207.30937,113.898208 209.29611,114.263466 C211.324244,114.636363 212.725478,115.854323 213.622348,117.725094 C213.715718,117.5077 213.786134,117.32246 213.872856,117.145199 C215.069878,114.698593 217.064091,113.461389 219.764453,113.320295 C221.82355,113.21271 223.591325,113.953959 225.176194,115.210214 C226.176382,116.003056 227.002786,116.96373 227.835743,117.918747 C227.898831,117.991035 227.961579,118.063612 228.045826,118.160657 C228.126773,118.068303 228.19879,117.987022 228.269837,117.904773 C229.034561,117.019094 229.7856,116.120167 230.689215,115.366297 C231.855421,114.39339 233.148775,113.651899 234.66842,113.423093 C237.094252,113.057836 239.278166,113.568684 241.011631,115.404399 C242.118971,116.577101 242.680746,118.015066 242.857538,119.60249 C243.059614,121.416205 242.807213,123.157536 241.921263,124.774649 C240.743749,126.923594 238.892843,128.036483 236.464245,128.227332 C234.511719,128.380901 232.786407,127.763532 231.206342,126.665197 C230.123558,125.91244 229.217031,124.971542 228.337438,124.001632 C228.245475,123.900284 228.155842,123.796906 228.013554,123.636133 C227.950078,123.72868 227.906256,123.818762 227.839237,123.88602 C227.093196,124.634909 226.371566,125.411021 225.58811,126.119148 C224.487224,127.114153 223.21765,127.84607 221.738041,128.104903 C219.209036,128.547331 216.950775,128.003652 215.100258,126.139069 C214.548237,125.582818 214.135836,124.931022 213.819085,124.217431 C213.78429,124.138809 213.748572,124.060622 213.699121,123.950765 C213.340829,124.719575 212.915956,125.40164 212.35884,125.995171 Z M230.486702,120.880843 C231.437973,121.956113 232.435831,122.944445 233.723167,123.594163 C234.328278,123.899559 234.961634,124.094421 235.641286,124.15259 C237.140452,124.280821 238.310492,123.611473 238.830289,122.275967 C239.214058,121.289908 239.220222,120.285281 238.806752,119.306812 C238.378336,118.292998 237.640109,117.615623 236.524518,117.415878 C235.703015,117.268788 234.916647,117.394796 234.165705,117.758216 C232.673091,118.480462 231.606321,119.695714 230.486702,120.880843 L230.486702,120.880843 Z M225.606697,120.881133 C224.777574,120.001788 223.947967,119.165719 222.980099,118.481429 C222.364408,118.046109 221.71465,117.671132 220.977005,117.476706 C219.47187,117.080116 218.197492,117.626406 217.460818,118.989763 C216.926996,119.977805 216.840808,121.022565 217.183861,122.079268 C217.553315,123.217059 218.348806,123.912228 219.547091,124.110764 C220.28988,124.233919 221.013499,124.139969 221.714359,123.86987 C223.300586,123.258739 224.500521,122.149718 225.606697,120.881133 L225.606697,120.881133 Z" id="500" sketch:type="MSShapeGroup"></path>
            </g>
        </g>
    </g>
</svg>