<?xml version="1.0" encoding="UTF-8" standalone="no"?>
<svg width="60px" height="60px" viewBox="0 0 60 60" version="1.1" xmlns="http://www.w3.org/2000/svg" xmlns:xlink="http://www.w3.org/1999/xlink" xmlns:sketch="http://www.bohemiancoding.com/sketch/ns">
    <!-- Generator: Sketch 3.3.3 (12072) - http://www.bohemiancoding.com/sketch -->
    <title>amazon</title>
    <desc>Created with Sketch.</desc>
    <defs></defs>
    <g id="soical" stroke="none" stroke-width="1" fill="none" fill-rule="evenodd" sketch:type="MSPage">
        <g id="social" sketch:type="MSArtboardGroup" transform="translate(-973.000000, -338.000000)">
            <g id="slices" sketch:type="MSLayerGroup" transform="translate(173.000000, 138.000000)"></g>
            <g id="square-flat" sketch:type="MSLayerGroup" transform="translate(173.000000, 138.000000)" fill="#E08D2D">
                <path d="M802.995937,200 L857.004063,200 C858.658673,200 860,201.33731 860,202.995937 L860,257.004063 C860,258.658673 858.66269,260 857.004063,260 L802.995937,260 C801.341327,260 800,258.66269 800,257.004063 L800,202.995937 C800,201.341327 801.33731,200 802.995937,200 Z" id="square-29" sketch:type="MSShapeGroup"></path>
            </g>
            <g id="icon" sketch:type="MSLayerGroup" transform="translate(182.000000, 150.000000)" fill="#FFFFFF">
                <path d="M821.420967,209.902223 C819.840663,210.112451 818.259949,210.39782 816.954516,211.033569 C814.412164,212.097794 812.693193,214.363441 812.693193,217.69289 C812.693193,221.873804 815.30529,223.995922 818.603333,223.995922 C819.704458,223.995922 820.597584,223.856615 821.420557,223.643854 C822.727631,223.218333 823.826705,222.439899 825.132138,221.022762 C825.888648,222.086987 826.093776,222.582584 827.40044,223.71393 C827.744234,223.857037 828.088028,223.857037 828.362078,223.643854 C829.186692,222.935496 830.628739,221.661466 831.386891,220.952686 C831.729865,220.666895 831.660122,220.243906 831.455814,219.888461 C830.698483,218.897267 829.943613,218.045803 829.943613,216.136023 L829.943613,209.759538 C829.943613,207.065838 830.14792,204.58743 828.225053,202.747727 C826.644749,201.257558 824.170499,200.692308 822.246811,200.692308 L821.420557,200.692308 C817.915745,200.905068 814.204985,202.461513 813.37873,206.925686 C813.243346,207.490937 813.656063,207.704119 813.930934,207.77715 L817.77872,208.272747 C818.191436,208.199716 818.396564,207.846804 818.464667,207.490937 C818.810102,205.93407 820.046201,205.156058 821.420557,205.012951 L821.697069,205.012951 C822.519221,205.012951 823.413578,205.368397 823.895628,206.073799 C824.442908,206.925686 824.376447,208.059565 824.376447,209.050759 L824.376447,209.616854 C823.483321,209.689462 822.452349,209.759538 821.420967,209.902223 Z M824.376857,213.72727 C824.376857,215.357168 824.443319,216.631198 823.620346,218.04538 C823.139527,219.036575 822.314914,219.674856 821.420967,219.888039 C821.283942,219.888039 821.079635,219.96107 820.872045,219.96107 C819.360664,219.96107 818.465077,218.756693 818.465077,216.984533 C818.465077,214.718886 819.772151,213.654661 821.420967,213.159064 C822.315324,212.946303 823.346296,212.876227 824.376857,212.876227 L824.376857,213.72727 L824.376857,213.72727 Z M837.035288,233.613628 C838.715694,232.151322 839.424615,229.496458 839.461538,228.110137 L839.461538,227.879225 C839.461538,227.569371 839.387692,227.340991 839.314257,227.225324 C838.977847,226.802757 836.511392,226.416074 834.384628,227.070397 C833.787706,227.265005 833.26381,227.532644 832.778888,227.879225 C832.405556,228.149819 832.479812,228.493022 832.853555,228.456295 C833.26381,228.377777 833.787706,228.341472 834.384628,228.261687 C835.691702,228.149397 837.222775,228.110137 837.595287,228.609112 C838.116311,229.262168 836.998365,232.111218 836.510982,233.343034 C836.3637,233.729718 836.698879,233.884223 837.035288,233.613628 L837.035288,233.613628 Z M802.723577,228.110137 C807.539155,232.613147 813.886216,235.307692 820.981584,235.307692 C825.386906,235.307692 830.463817,234.036617 834.384628,231.613088 C834.908524,231.302812 835.429548,230.956654 835.91447,230.573348 C836.586879,230.074373 835.989957,229.302272 835.317549,229.609171 C835.019293,229.724838 834.682883,229.880187 834.385038,229.995432 C830.089254,231.728756 825.574803,232.537161 821.391429,232.537161 C814.744881,232.537161 808.323973,230.649756 803.134242,227.533067 C802.6485,227.265005 802.31168,227.763557 802.723577,228.110137 L802.723577,228.110137 Z" id="amazon" sketch:type="MSShapeGroup"></path>
            </g>
        </g>
    </g>
</svg>