<?xml version="1.0" encoding="UTF-8" standalone="no"?>
<svg width="60px" height="60px" viewBox="0 0 60 60" version="1.1" xmlns="http://www.w3.org/2000/svg" xmlns:xlink="http://www.w3.org/1999/xlink" xmlns:sketch="http://www.bohemiancoding.com/sketch/ns">
    <!-- Generator: Sketch 3.3.3 (12072) - http://www.bohemiancoding.com/sketch -->
    <title>behance</title>
    <desc>Created with Sketch.</desc>
    <defs></defs>
    <g id="soical" stroke="none" stroke-width="1" fill="none" fill-rule="evenodd" sketch:type="MSPage">
        <g id="social" sketch:type="MSArtboardGroup" transform="translate(-873.000000, -738.000000)">
            <g id="slices" sketch:type="MSLayerGroup" transform="translate(173.000000, 138.000000)"></g>
            <g id="square-flat" sketch:type="MSLayerGroup" transform="translate(173.000000, 138.000000)" fill="#3498DB">
                <path d="M702.995937,600 L757.004063,600 C758.658673,600 760,601.33731 760,602.995937 L760,657.004063 C760,658.658673 758.66269,660 757.004063,660 L702.995937,660 C701.341327,660 700,658.66269 700,657.004063 L700,602.995937 C700,601.341327 701.33731,600 702.995937,600 Z" id="square-68" sketch:type="MSShapeGroup"></path>
            </g>
            <g id="icon" sketch:type="MSLayerGroup" transform="translate(182.000000, 150.000000)" fill="#FFFFFF">
                <path d="M726.423091,607.862019 L726.423091,610.169712 L735.65386,610.169712 L735.65386,607.862019 L726.423091,607.862019 Z M703.115385,606.66087 L713.767503,606.778846 C713.767503,606.778846 719.617047,606.470327 720.423303,611.114671 C721.229559,615.759015 717.480882,616.856295 717.480882,616.856295 C717.480882,616.856295 722.110464,617.907822 721.465821,623.332594 C720.821177,628.757367 714.499362,628.813352 714.499362,628.813352 L703.115385,628.813352 L703.115385,606.66087 Z M707.961553,615.477446 L712.369584,615.504951 C712.651689,615.504951 713.393389,615.480347 714.00347,615.336314 C714.264605,615.274663 714.7728,615.099263 715.123664,614.782913 C715.269352,614.651555 715.537744,614.281474 715.69262,613.842878 C715.843148,613.416598 715.882273,612.922476 715.882273,612.732906 C715.882273,612.385813 715.819056,612.064521 715.69262,611.769023 C715.566185,611.473524 715.376535,611.217898 715.123664,611.002137 C714.870793,610.786376 714.549212,610.617522 714.158911,610.495571 C713.76861,610.373619 713.304105,610.312644 712.76538,610.312644 L707.961553,610.285138 L707.961553,615.477446 Z M707.961553,624.793171 L712.777582,624.823572 C713.085799,624.823572 713.896149,624.796377 714.562697,624.637184 C714.848003,624.569044 715.403236,624.375182 715.786574,624.025534 C715.945748,623.88035 716.238981,623.471316 716.408193,622.986554 C716.572653,622.515406 716.615399,621.969275 716.615399,621.759752 C716.615399,621.376124 716.546331,621.021015 716.408193,620.694413 C716.270055,620.367812 716.062851,620.085279 715.786575,619.846808 C715.510298,619.608337 715.158953,619.42171 714.732526,619.286922 C714.3061,619.152134 713.798601,619.084741 713.210012,619.084741 L707.961553,619.054341 L707.961553,624.793171 Z M727.440962,621.842572 C727.447889,621.97158 727.440962,625.153291 730.047777,625.884015 C733.07419,626.732357 734.423009,624.2185 734.527702,623.92719 L738.491799,623.92719 C738.38925,624.404656 736.777832,630.904667 728.010517,628.786208 C722.628791,627.485814 722.905536,621.113574 722.905536,620.567871 C722.905536,620.065239 722.927171,617.391963 725.095816,614.926758 C727.264461,612.461553 730.352018,612.461552 730.97727,612.461553 C731.602522,612.461553 734.818071,612.461553 736.777832,614.637057 C739.313496,617.451864 738.810572,621.962134 738.810572,621.962134 L727.440962,621.842572 Z M734.384629,619.054341 C734.353895,618.555642 734.254009,618.096064 734.084968,617.675593 C733.915927,617.255121 733.68286,616.890881 733.385758,616.582861 C733.088656,616.274841 732.732652,616.03283 732.317734,615.856818 C731.902816,615.680807 731.439242,615.592803 730.926998,615.592803 C730.465978,615.592803 730.038261,615.685696 729.643832,615.871486 C729.249404,616.057275 728.903645,616.309066 728.606543,616.626864 C728.309441,616.944662 728.071251,617.311347 727.891966,617.726929 C727.71268,618.142511 727.607672,618.584978 727.576937,619.054341 L734.384629,619.054341 Z" id="behance" sketch:type="MSShapeGroup"></path>
            </g>
        </g>
    </g>
</svg>