<?xml version="1.0" encoding="utf-8"?>
<!-- Generator: Adobe Illustrator 21.0.0, SVG Export Plug-In . SVG Version: 6.00 Build 0)  -->
<svg version="1.1" id="Layer_1" xmlns:sketch="http://www.bohemiancoding.com/sketch/ns"
	 xmlns="http://www.w3.org/2000/svg" xmlns:xlink="http://www.w3.org/1999/xlink" x="0px" y="0px" viewBox="0 0 60 60"
	 style="enable-background:new 0 0 60 60;" xml:space="preserve">
<style type="text/css">
	.st0{fill:#424242;}
	.st1{fill:#FFFFFF;}
	.st2{opacity:0.34;}
	.st3{fill:#CE6F2D;}
	.st4{opacity:0.47;}
	.st5{fill:#4186CD;}
	.st6{fill:#00B965;}
</style>
<g id="soical" sketch:type="MSPage">
	<g id="social" transform="translate(-1073.000000, -638.000000)" sketch:type="MSArtboardGroup">
		<g id="slices" transform="translate(173.000000, 138.000000)" sketch:type="MSLayerGroup">
		</g>
		<g id="square-flat" transform="translate(173.000000, 138.000000)" sketch:type="MSLayerGroup">
			<path id="square-60" sketch:type="MSShapeGroup" class="st0" d="M903,500h54c1.7,0,3,1.3,3,3v54c0,1.7-1.3,3-3,3h-54
				c-1.7,0-3-1.3-3-3v-54C900,501.3,901.3,500,903,500z"/>
		</g>
		<g id="icon" transform="translate(182.000000, 150.000000)" sketch:type="MSLayerGroup">
			<path id="github" sketch:type="MSShapeGroup" class="st1" d="M916.4,535.5c0-0.4,0-1.6,0-3.2c-5.1,1.1-6.2-2.5-6.2-2.5
				c-0.8-2.2-2.1-2.8-2.1-2.8c-1.7-1.2,0.1-1.2,0.1-1.2c1.9,0.1,2.8,2,2.8,2c1.6,2.9,4.3,2.1,5.4,1.6c0.2-1.2,0.6-2.1,1.2-2.5
				c-4.1-0.5-8.4-2.1-8.4-9.4c0-2.1,0.7-3.8,1.9-5.1c-0.2-0.5-0.8-2.4,0.2-5c0,0,1.6-0.5,5.1,1.9c1.5-0.4,3.1-0.6,4.6-0.6
				c1.6,0,3.1,0.2,4.6,0.6c3.5-2.4,5.1-1.9,5.1-1.9c1,2.6,0.4,4.5,0.2,5c1.2,1.3,1.9,3,1.9,5.1c0,7.3-4.3,8.9-8.4,9.3
				c0.7,0.6,1.3,1.7,1.3,3.5c0,2.5,0,4.6,0,5.2c0,0.5,0.3,1.1,1.3,0.9c7.3-2.5,12.6-9.6,12.6-18c0-10.5-8.3-18.9-18.5-18.9
				c-10.2,0-18.5,8.5-18.5,18.9c0,8.4,5.3,15.5,12.6,18C916.1,536.6,916.4,536,916.4,535.5z"/>
		</g>
	</g>
</g>
<g id="soical_2_" sketch:type="MSPage" class="st2">
	<g id="social_2_" transform="translate(-173.000000, -238.000000)" sketch:type="MSArtboardGroup">
		<g id="slices_2_" transform="translate(173.000000, 138.000000)" sketch:type="MSLayerGroup">
		</g>
		<g id="square-flat_2_" transform="translate(173.000000, 138.000000)" sketch:type="MSLayerGroup">
			<path id="square-11" sketch:type="MSShapeGroup" class="st3" d="M3,100h54c1.7,0,3,1.3,3,3v54c0,1.7-1.3,3-3,3H3
				c-1.7,0-3-1.3-3-3v-54C0,101.3,1.3,100,3,100z"/>
		</g>
		<g id="icon_2_" transform="translate(182.000000, 150.000000)" sketch:type="MSLayerGroup">
			<path id="instagram" sketch:type="MSShapeGroup" class="st1" d="M10.4,102h21.3c3,0,5.4,2.4,5.4,5.4v21.3c0,3-2.4,5.4-5.4,5.4
				H10.4c-3,0-5.4-2.4-5.4-5.4v-21.3C5,104.4,7.4,102,10.4,102z M29.9,115.3h4.4v13.3c0,1.5-1.2,2.7-2.7,2.7H10.4
				c-1.5,0-2.7-1.2-2.7-2.7v-13.3h4.4c-0.3,0.8-0.4,1.7-0.4,2.7c0,5.2,4.2,9.3,9.3,9.3s9.3-4.2,9.3-9.3
				C30.3,117.1,30.2,116.2,29.9,115.3L29.9,115.3z M21,124.7c3.7,0,6.7-3,6.7-6.7s-3-6.7-6.7-6.7s-6.7,3-6.7,6.7
				S17.3,124.7,21,124.7z M26.3,106c0-0.7,0.6-1.3,1.3-1.3H33c0.7,0,1.3,0.6,1.3,1.3v5.4c0,0.7-0.6,1.3-1.3,1.3h-5.4
				c-0.7,0-1.3-0.6-1.3-1.3V106z"/>
		</g>
	</g>
</g>
<g id="soical_1_" sketch:type="MSPage" class="st4">
	<g id="social_1_" transform="translate(-173.000000, -138.000000)" sketch:type="MSArtboardGroup">
		<g id="slices_1_" transform="translate(173.000000, 138.000000)" sketch:type="MSLayerGroup">
		</g>
		<g id="square-flat_1_" transform="translate(173.000000, 138.000000)" sketch:type="MSLayerGroup">
			<path id="square" sketch:type="MSShapeGroup" class="st5" d="M3,0h54c1.7,0,3,1.3,3,3v54c0,1.7-1.3,3-3,3H3c-1.7,0-3-1.3-3-3V3
				C0,1.3,1.3,0,3,0z"/>
		</g>
		<g id="icon_1_" transform="translate(182.000000, 150.000000)" sketch:type="MSLayerGroup">
			<path id="twitter" sketch:type="MSShapeGroup" class="st1" d="M32.1,6.4c-1.2-1.4-2.9-2.3-4.8-2.3c-3.7-0.1-6.6,3-6.6,6.9
				c0,0.6,0.1,1.1,0.2,1.6c-5.5-0.4-10.4-3.2-13.7-7.5c-0.6,1-0.9,2.2-0.9,3.5c0,2.5,1.2,4.6,2.9,5.9c-1.1,0-2.1-0.4-3-0.9
				c0,0,0,0.1,0,0.1c0,3.4,2.3,6.3,5.3,7c-0.6,0.2-1.1,0.2-1.7,0.2c-0.4,0-0.8-0.1-1.2-0.1c0.8,2.8,3.3,4.9,6.2,4.9
				c-2.3,1.9-5.1,3-8.2,3c-0.5,0-1.1,0-1.6-0.1c2.9,2,6.4,3.2,10.2,3.2c12.2,0,18.9-10.6,18.9-19.8c0-0.3,0-0.6,0-0.9
				c1.3-1,2.4-2.2,3.3-3.6c-1.2,0.5-2.5,0.9-3.8,1c1.4-0.8,2.4-2.2,2.9-3.8C35,5.6,33.6,6.1,32.1,6.4z"/>
		</g>
	</g>
</g>
<path class="st6" d="M57,60H3c-1.6,0-3-1.3-3-3V3c0-1.6,1.4-3,3-3h54c1.7,0,3,1.4,3,3v54C60,58.7,58.7,60,57,60z"/>
<g>
	
		<rect x="10.8" y="19.2" transform="matrix(0.9989 -4.651270e-02 4.651270e-02 0.9989 -1.0683 1.2275)" class="st1" width="30.1" height="8.8"/>
	<rect x="11" y="26.6" class="st1" width="19.4" height="11.7"/>
	
		<rect x="40.7" y="20.8" transform="matrix(0.9043 -0.4269 0.4269 0.9043 -9.1533 21.5842)" class="st1" width="5.7" height="20.9"/>
	<rect x="26.5" y="25" class="st1" width="15.6" height="12.2"/>
	<rect x="39.3" y="33.3" class="st1" width="6.9" height="5"/>
	<rect x="16.3" y="33.6" transform="matrix(0.9756 -0.2196 0.2196 0.9756 -7.5518 5.668)" class="st1" width="10.9" height="6.4"/>
	<rect x="14" y="36.1" class="st1" width="4.8" height="3.8"/>
	<g transform="translate(0.000000,192.000000) scale(0.100000,-0.100000)">
		<path class="st6" d="M102,1724v-189.2l8.1-9.2l-8.1,9.2l33.1-36.1l0,0l217.7,46.8l135.4-61.8l0,0l0,0l0,0l0,0l0,0l0,0l29.9,43.2
			l-8.7,31.3L453.9,1659l-46.3,77.3 M263.9,1713.8c11-5.2,30.8-18,44.5-28.4c13.4-10.4,25-18.3,25.3-17.7
			c0.6,0.6,8.2,13.1,17.1,27.8c16.5,27.5,25.6,34.5,36.3,27.8c2.4-1.5,26.2-41.2,52.8-88.2c47.9-84.5,53.7-98.6,44.9-107.4
			c-9.2-9.2-19.8-3.7-78.4,39.4c-32,23.5-58.3,43.9-58.3,44.9c0,1.2,6.7,6.4,15,11.9c14.6,9.5,15.3,9.8,22.3,4.3
			c4-2.7,12.2-9.2,18.6-14l11.6-8.5l-5.8,10.4c-3.4,5.8-11.6,20.4-18.6,32.6l-12.8,22.3l-25-40.6c-29.9-48.2-61-81.5-89.1-95.2
			c-15.3-7.6-23.2-9.2-46.4-10.4c-26.2-1.2-29.3-0.6-47.6,7.6c-23.5,11.3-40,27.5-50.7,49.7c-10.7,22.3-11.3,61-1.5,82.7
			c11.9,25.9,33.9,45.5,62.6,55.8C202,1728.4,239.2,1725.4,263.9,1713.8z"/>
		<path class="st6" d="M197.1,1688.2c-33.9-8.5-52.5-34.5-49.7-69.3c2.7-34.2,33-58,70.5-55.5c38.4,2.4,69.6,28.7,105.9,89.1
			l7.3,12.2l-14-9.8l-14-9.8l-18,14C254.5,1683.4,221.2,1694.3,197.1,1688.2z"/>
	</g>
</g>
</svg>
