<?xml version="1.0" encoding="utf-8"?>
<!-- Generator: Adobe Illustrator 21.0.0, SVG Export Plug-In . SVG Version: 6.00 Build 0)  -->
<svg version="1.1" id="Layer_1" xmlns:sketch="http://www.bohemiancoding.com/sketch/ns"
	 xmlns="http://www.w3.org/2000/svg" xmlns:xlink="http://www.w3.org/1999/xlink" x="0px" y="0px" viewBox="0 0 60 60"
	 style="enable-background:new 0 0 60 60;" xml:space="preserve">
<style type="text/css">
	.st0{fill:#00B965;}
	.st1{fill:#FFFFFF;}
</style>
<path class="st0" d="M57,60H3c-1.6,0-3-1.3-3-3V3c0-1.6,1.4-3,3-3h54c1.7,0,3,1.4,3,3v54C60,58.7,58.7,60,57,60z"/>
<g>
	
		<rect x="10.8" y="19.2" transform="matrix(0.9989 -4.651352e-02 4.651352e-02 0.9989 -1.0697 1.228)" class="st1" width="30.1" height="8.8"/>
	<rect x="11" y="26.6" class="st1" width="19.4" height="11.7"/>
	
		<rect x="40.7" y="20.8" transform="matrix(0.9043 -0.4269 0.4269 0.9043 -9.1718 21.5907)" class="st1" width="5.7" height="20.9"/>
	<rect x="26.5" y="25" class="st1" width="15.6" height="12.2"/>
	<rect x="39.3" y="33.3" class="st1" width="6.9" height="5"/>
	<rect x="16.3" y="33.6" transform="matrix(0.9756 -0.2196 0.2196 0.9756 -7.549 5.6741)" class="st1" width="10.9" height="6.4"/>
	<rect x="14" y="36.1" class="st1" width="4.8" height="3.8"/>
	<g transform="translate(0.000000,192.000000) scale(0.100000,-0.100000)">
		<path class="st0" d="M102,1724v-189.2l8.1-9.2l-8.1,9.2l33.1-36.1l0,0l217.7,46.8l135.4-61.8l0,0l0,0l0,0l0,0l0,0l0,0l29.9,43.2
			l-8.7,31.3L453.9,1659l-46.3,77.3 M263.9,1713.8c11-5.2,30.8-18,44.5-28.4c13.4-10.4,25-18.3,25.3-17.7
			c0.6,0.6,8.2,13.1,17.1,27.8c16.5,27.5,25.6,34.5,36.3,27.8c2.4-1.5,26.2-41.2,52.8-88.2c47.9-84.5,53.7-98.6,44.9-107.4
			c-9.2-9.2-19.8-3.7-78.4,39.4c-32,23.5-58.3,43.9-58.3,44.9c0,1.2,6.7,6.4,15,11.9c14.6,9.5,15.3,9.8,22.3,4.3
			c4-2.7,12.2-9.2,18.6-14l11.6-8.5l-5.8,10.4c-3.4,5.8-11.6,20.4-18.6,32.6l-12.8,22.3l-25-40.6c-29.9-48.2-61-81.5-89.1-95.2
			c-15.3-7.6-23.2-9.2-46.4-10.4c-26.2-1.2-29.3-0.6-47.6,7.6c-23.5,11.3-40,27.5-50.7,49.7c-10.7,22.3-11.3,61-1.5,82.7
			c11.9,25.9,33.9,45.5,62.6,55.8C202,1728.4,239.2,1725.4,263.9,1713.8z"/>
		<path class="st0" d="M197.1,1688.2c-33.9-8.5-52.5-34.5-49.7-69.3c2.7-34.2,33-58,70.5-55.5c38.4,2.4,69.6,28.7,105.9,89.1
			l7.3,12.2l-14-9.8l-14-9.8l-18,14C254.5,1683.4,221.2,1694.3,197.1,1688.2z"/>
	</g>
</g>
</svg>
