<?xml version="1.0" encoding="utf-8"?>
<!-- Generator: Adobe Illustrator 21.0.0, SVG Export Plug-In . SVG Version: 6.00 Build 0)  -->
<svg version="1.1" id="Layer_1" xmlns="http://www.w3.org/2000/svg" xmlns:xlink="http://www.w3.org/1999/xlink" x="0px" y="0px"
	 viewBox="0 0 60 60" style="enable-background:new 0 0 60 60;" xml:space="preserve">
<style type="text/css">
	.st0{fill:#2196F3;}
	.st1{fill:#FFFFFF;}
	.st2{fill:#E6E6E6;}
	.st3{fill:#22A7F0;}
	.st4{fill:#CF000F;}
	.st5{fill:#E67E22;}
	.st6{fill:#26A65B;}
</style>
<title>default</title>
<g id="soical">
	<g id="social">
		<g id="square-flat">
			<path id="square-60" class="st0" d="M3,0h54c1.7,0,3,1.3,3,3v54c0,1.7-1.3,3-3,3H3c-1.7,0-3-1.3-3-3V3C0,1.3,1.3,0,3,0z"/>
		</g>
	</g>
</g>
<g id="icon">
	<path id="bg" class="st1" d="M46.5,46.8h-33c-1.2,0-2.1-0.9-2.1-2.1V15.3c0-1.2,0.9-2.1,2.1-2.1l0,0h33c1.2,0,2.1,0.9,2.1,2.1v29.4
		C48.6,45.9,47.7,46.8,46.5,46.8z"/>
	<g id="text">
		<rect id="_Path_" x="25.7" y="26" class="st2" width="17.6" height="2.1"/>
		<rect id="_Path_2" x="25.7" y="30.3" class="st2" width="17.6" height="2.1"/>
		<rect id="_Path_3" x="16.7" y="34.5" class="st2" width="26.7" height="2.1"/>
		<rect id="_Path_4" x="16.7" y="38.8" class="st2" width="26.7" height="2.1"/>
	</g>
	<rect id="img" x="16.7" y="26" class="st3" width="6.4" height="6.4"/>
	<path id="header" class="st2" d="M46.5,13.2h-33c-1.2,0-2.1,0.9-2.1,2.1l0,0v4.8h37.3v-4.8c0-1.2-0.9-2.1-2.1-2.1
		C46.6,13.2,46.5,13.2,46.5,13.2z"/>
	<circle id="red" class="st4" cx="15.1" cy="16.8" r="1.1"/>
	<circle id="orange" class="st5" cx="18.3" cy="16.8" r="1.1"/>
	<circle id="green" class="st6" cx="21.5" cy="16.8" r="1.1"/>
</g>
</svg>
