<?xml version="1.0" encoding="UTF-8" standalone="no"?>
<svg width="60px" height="60px" viewBox="0 0 60 60" version="1.1" xmlns="http://www.w3.org/2000/svg" xmlns:xlink="http://www.w3.org/1999/xlink" xmlns:sketch="http://www.bohemiancoding.com/sketch/ns">
    <!-- Generator: Sketch 3.3.3 (12072) - http://www.bohemiancoding.com/sketch -->
    <title>digg</title>
    <desc>Created with Sketch.</desc>
    <defs></defs>
    <g id="soical" stroke="none" stroke-width="1" fill="none" fill-rule="evenodd" sketch:type="MSPage">
        <g id="social" sketch:type="MSArtboardGroup" transform="translate(-1073.000000, -338.000000)">
            <g id="slices" sketch:type="MSLayerGroup" transform="translate(173.000000, 138.000000)"></g>
            <g id="square-flat" sketch:type="MSLayerGroup" transform="translate(173.000000, 138.000000)" fill="#424242">
                <path d="M902.995937,200 L957.004063,200 C958.658673,200 960,201.33731 960,202.995937 L960,257.004063 C960,258.658673 958.66269,260 957.004063,260 L902.995937,260 C901.341327,260 900,258.66269 900,257.004063 L900,202.995937 C900,201.341327 901.33731,200 902.995937,200 Z" id="square-30" sketch:type="MSShapeGroup"></path>
            </g>
            <g id="icon" sketch:type="MSLayerGroup" transform="translate(182.000000, 150.000000)" fill="#FFFFFF">
                <path d="M939.807692,232.846154 L941.538462,232.846154 L941.538462,210.923077 L939.807692,210.923077 L931.153846,210.923077 L931.153846,212.653846 L938.076923,214.384615 L938.076923,222.461539 L934.615385,222.461539 L934.615385,214.384615 L931.153846,214.384615 L931.153846,212.653846 L931.153846,225.923077 L932.884615,225.923077 L938.076923,225.923077 L938.076923,229.384615 L931.153846,229.384615 L931.153846,232.846154 L939.807692,232.846154 L939.807692,232.846154 Z M927.115385,232.846154 L928.846154,232.846154 L928.846154,210.923077 L927.115385,210.923077 L918.461538,210.923077 L918.461538,212.653846 L925.384615,214.384615 L925.384615,222.461539 L921.923077,222.461539 L921.923077,214.384615 L918.461538,214.384615 L918.461538,212.653846 L918.461538,225.923077 L920.192308,225.923077 L925.384615,225.923077 L925.384615,229.384615 L918.461538,229.384615 L918.461538,232.846154 L927.115385,232.846154 L927.115385,232.846154 Z M901.730769,225.923077 L900,225.923077 L900,212.653846 L900,210.923077 L906.923077,210.923077 L906.923077,204 L910.384615,204 L910.384615,224.192308 L910.384615,225.923077 L901.730769,225.923077 L901.730769,225.923077 Z M903.461538,222.461538 L903.461538,214.384615 L906.923077,214.384615 L906.923077,222.461538 L903.461538,222.461538 L903.461538,222.461538 Z M912.692308,207.461538 L912.692308,204 L916.153846,204 L916.153846,207.461538 L912.692308,207.461538 L912.692308,207.461538 Z M912.692308,210.923077 L912.692308,225.923077 L916.153846,225.923077 L916.153846,210.923077 L912.692308,210.923077 L912.692308,210.923077 Z" id="digg" sketch:type="MSShapeGroup"></path>
            </g>
        </g>
    </g>
</svg>