<?xml version="1.0" encoding="utf-8"?>
<!-- Generator: Adobe Illustrator 21.0.0, SVG Export Plug-In . SVG Version: 6.00 Build 0)  -->
<svg version="1.1" id="Layer_1" xmlns:sketch="http://www.bohemiancoding.com/sketch/ns"
	 xmlns="http://www.w3.org/2000/svg" xmlns:xlink="http://www.w3.org/1999/xlink" x="0px" y="0px" viewBox="0 0 60 60"
	 style="enable-background:new 0 0 60 60;" xml:space="preserve">
<style type="text/css">
	.st0{fill:#228A31;}
	.st1{enable-background:new    ;}
	.st2{fill:#FFFFFF;}
</style>
<path class="st0" d="M57,60H3c-1.6,0-3-1.3-3-3V3c0-1.6,1.4-3,3-3h54c1.7,0,3,1.4,3,3v54C60,58.7,58.7,60,57,60z"/>
<g id="Shape_1_1_" class="st1">
	<g id="Shape_1">
		<g>
			<path class="st2" d="M44,15.6H16V19h28V15.6L44,15.6z M37.2,41l1.7-6h3.3c0,0,0-9,0-13.5H17.7c0,4.5,0,13.5,0,13.5H21l1.8,6
				c0,0-5.1,0-7.6,0v3.4h29.7V41C42.3,41,37.2,41,37.2,41z M22,31.7V25h16v6.7H22z M33.8,41h-7.5l-1.8-5.9h11L33.8,41z"/>
		</g>
	</g>
</g>
</svg>
