<?xml version="1.0" encoding="UTF-8" standalone="no"?>
<svg width="60px" height="60px" viewBox="0 0 60 60" version="1.1" xmlns="http://www.w3.org/2000/svg" xmlns:xlink="http://www.w3.org/1999/xlink" xmlns:sketch="http://www.bohemiancoding.com/sketch/ns">
    <!-- Generator: Sketch 3.3.3 (12072) - http://www.bohemiancoding.com/sketch -->
    <title>dribbble</title>
    <desc>Created with Sketch.</desc>
    <defs>
        <path d="M403.782542,516.646238 C403.747905,517.092941 403.730263,517.54441 403.730263,518 C403.730263,522.700908 405.608513,526.963126 408.655496,530.077138 C410.958376,526.611757 413.469532,523.855309 416.159109,521.757529 C418.482785,519.945139 420.886103,518.655747 423.332135,517.828799 C422.947421,516.926265 422.550325,516.032147 422.141473,515.146696 C421.97017,514.775704 421.79775,514.408254 421.624317,514.044385 C416.907717,515.491631 411.006585,516.401367 403.782542,516.646238 L403.782542,516.646238 Z M403.969077,515.121499 C404.982221,509.083009 409.129018,504.107133 414.680108,501.923232 C415.169429,502.62741 415.700452,503.425211 416.264373,504.31315 C417.848705,506.807806 419.43379,509.600195 420.95308,512.663844 C416.467892,514.012312 410.850697,514.873271 403.969077,515.121499 L403.969077,515.121499 Z M416.172119,501.414153 C417.70424,500.96894 419.324247,500.730263 421,500.730263 C425.521762,500.730263 429.637634,502.468086 432.716163,505.312278 C432.605795,505.490632 432.480053,505.677224 432.337832,505.871086 C431.415101,507.128863 430.023977,508.399677 428.064195,509.597405 C426.462568,510.576245 424.584938,511.447424 422.413441,512.194049 C420.839025,509.000838 419.192505,506.093528 417.545197,503.499711 C417.062812,502.740156 416.60339,502.044298 416.172119,501.414153 L416.172119,501.414153 Z M433.809365,506.416881 C436.581385,509.480463 438.269737,513.543064 438.269737,518 C438.269737,518.010954 438.269727,518.021905 438.269706,518.032853 C438.038324,517.948363 437.793472,517.864065 437.535666,517.780923 C435.935307,517.264807 434.154461,516.89185 432.236338,516.743181 C429.74495,516.55008 427.252074,516.745696 424.794463,517.390291 C424.383129,516.420743 423.957728,515.460758 423.519011,514.510626 C423.372818,514.194017 423.22582,513.879938 423.078078,513.568412 C425.283292,512.798848 427.203531,511.901628 428.85543,510.892063 C430.982446,509.59213 432.520736,508.186877 433.561221,506.768589 C433.649657,506.648042 433.732288,506.530725 433.809365,506.416881 L433.809365,506.416881 Z M438.194032,519.627733 C437.669519,525.238423 434.460904,530.069414 429.865128,532.823765 C428.721881,527.972007 427.203559,523.290233 425.382353,518.806251 C427.608566,518.246718 429.863127,518.081088 432.119088,518.255942 C433.912243,518.394925 435.577584,518.743692 437.069957,519.224982 C437.483438,519.35833 437.859081,519.494224 438.194032,519.627733 L438.194032,519.627733 Z M428.481091,533.569669 C426.217645,534.659219 423.68012,535.269737 421,535.269737 C416.716728,535.269737 412.79766,533.710395 409.779513,531.128428 C412.032898,527.695375 414.481039,524.990615 417.092271,522.953941 C419.308878,521.225062 421.594497,520.005423 423.917916,519.233154 C425.786648,523.81325 427.334296,528.602713 428.481091,533.569669 L428.481091,533.569669 Z M439.75,518 C439.75,507.64466 431.35534,499.25 421,499.25 C410.64466,499.25 402.25,507.64466 402.25,518 C402.25,528.35534 410.64466,536.75 421,536.75 C431.35534,536.75 439.75,528.35534 439.75,518 L439.75,518 Z" id="path-1"></path>
    </defs>
    <g id="soical" stroke="none" stroke-width="1" fill="none" fill-rule="evenodd" sketch:type="MSPage">
        <g id="social" sketch:type="MSArtboardGroup" transform="translate(-573.000000, -638.000000)">
            <g id="slices" sketch:type="MSLayerGroup" transform="translate(173.000000, 138.000000)"></g>
            <g id="square-flat" sketch:type="MSLayerGroup" transform="translate(173.000000, 138.000000)" fill="#AA3752">
                <path d="M402.995937,500 L457.004063,500 C458.658673,500 460,501.33731 460,502.995937 L460,557.004063 C460,558.658673 458.66269,560 457.004063,560 L402.995937,560 C401.341327,560 400,558.66269 400,557.004063 L400,502.995937 C400,501.341327 401.33731,500 402.995937,500 Z" id="square-55" sketch:type="MSShapeGroup"></path>
            </g>
            <g id="icon" sketch:type="MSLayerGroup" transform="translate(182.000000, 150.000000)">
                <g id="dribbble">
                    <use fill="#FFFFFF" fill-rule="evenodd" sketch:type="MSShapeGroup" xlink:href="#path-1"></use>
                    <use fill="none" xlink:href="#path-1"></use>
                </g>
            </g>
        </g>
    </g>
</svg>