<?xml version="1.0" encoding="utf-8"?>
<!-- Generator: Adobe Illustrator 21.0.0, SVG Export Plug-In . SVG Version: 6.00 Build 0)  -->
<svg version="1.1" id="Layer_1" xmlns:sketch="http://www.bohemiancoding.com/sketch/ns"
	 xmlns="http://www.w3.org/2000/svg" xmlns:xlink="http://www.w3.org/1999/xlink" x="0px" y="0px" viewBox="0 0 60 60"
	 style="enable-background:new 0 0 60 60;" xml:space="preserve">
<style type="text/css">
	.st0{fill:#424242;}
	.st1{fill:#FFFFFF;}
</style>
<g id="soical" sketch:type="MSPage">
	<g id="social" transform="translate(-1073.000000, -638.000000)" sketch:type="MSArtboardGroup">
		<g id="slices" transform="translate(173.000000, 138.000000)" sketch:type="MSLayerGroup">
		</g>
		<g id="square-flat" transform="translate(173.000000, 138.000000)" sketch:type="MSLayerGroup">
			<path id="square-60" sketch:type="MSShapeGroup" class="st0" d="M903,500h54c1.7,0,3,1.3,3,3v54c0,1.7-1.3,3-3,3h-54
				c-1.7,0-3-1.3-3-3v-54C900,501.3,901.3,500,903,500z"/>
		</g>
		<g id="icon" transform="translate(182.000000, 150.000000)" sketch:type="MSLayerGroup">
			<path id="github" sketch:type="MSShapeGroup" class="st1" d="M916.4,535.5c0-0.4,0-1.6,0-3.2c-5.1,1.1-6.2-2.5-6.2-2.5
				c-0.8-2.2-2.1-2.8-2.1-2.8c-1.7-1.2,0.1-1.2,0.1-1.2c1.9,0.1,2.8,2,2.8,2c1.6,2.9,4.3,2.1,5.4,1.6c0.2-1.2,0.6-2.1,1.2-2.5
				c-4.1-0.5-8.4-2.1-8.4-9.4c0-2.1,0.7-3.8,1.9-5.1c-0.2-0.5-0.8-2.4,0.2-5c0,0,1.6-0.5,5.1,1.9c1.5-0.4,3.1-0.6,4.6-0.6
				c1.6,0,3.1,0.2,4.6,0.6c3.5-2.4,5.1-1.9,5.1-1.9c1,2.6,0.4,4.5,0.2,5c1.2,1.3,1.9,3,1.9,5.1c0,7.3-4.3,8.9-8.4,9.3
				c0.7,0.6,1.3,1.7,1.3,3.5c0,2.5,0,4.6,0,5.2c0,0.5,0.3,1.1,1.3,0.9c7.3-2.5,12.6-9.6,12.6-18c0-10.5-8.3-18.9-18.5-18.9
				c-10.2,0-18.5,8.5-18.5,18.9c0,8.4,5.3,15.5,12.6,18C916.1,536.6,916.4,536,916.4,535.5z"/>
		</g>
	</g>
</g>
</svg>
