<?xml version="1.0" encoding="UTF-8" standalone="no"?>
<svg width="60px" height="60px" viewBox="0 0 60 60" version="1.1" xmlns="http://www.w3.org/2000/svg" xmlns:xlink="http://www.w3.org/1999/xlink" xmlns:sketch="http://www.bohemiancoding.com/sketch/ns">
    <!-- Generator: Sketch 3.3.3 (12072) - http://www.bohemiancoding.com/sketch -->
    <title>instagram</title>
    <desc>Created with Sketch.</desc>
    <defs></defs>
    <g id="soical" stroke="none" stroke-width="1" fill="none" fill-rule="evenodd" sketch:type="MSPage">
        <g id="social" sketch:type="MSArtboardGroup" transform="translate(-173.000000, -238.000000)">
            <g id="slices" sketch:type="MSLayerGroup" transform="translate(173.000000, 138.000000)"></g>
            <g id="square-flat" sketch:type="MSLayerGroup" transform="translate(173.000000, 138.000000)" fill="#CE6F2D">
                <path d="M2.99593743,100 L57.0040626,100 C58.6586731,100 60,101.33731 60,102.995937 L60,157.004063 C60,158.658673 58.6626903,160 57.0040626,160 L2.99593743,160 C1.34132688,160 0,158.66269 0,157.004063 L0,102.995937 C0,101.341327 1.33730974,100 2.99593743,100 Z" id="square-11" sketch:type="MSShapeGroup"></path>
            </g>
            <g id="icon" sketch:type="MSLayerGroup" transform="translate(182.000000, 150.000000)" fill="#FFFFFF">
                <path d="M10.3560805,102 L31.6439195,102 C34.6020011,102 37,104.405201 37,107.356081 L37,128.643919 C37,131.602001 34.594799,134 31.6439195,134 L10.3560805,134 C7.39799894,134 5,131.594799 5,128.643919 L5,107.356081 C5,104.397999 7.40520096,102 10.3560805,102 Z M29.9468284,115.333333 L34.3333333,115.333333 L34.3333333,128.643919 C34.3333333,130.126202 33.125081,131.333333 31.6439195,131.333333 L10.3560805,131.333333 C8.87379782,131.333333 7.66666667,130.125081 7.66666667,128.643919 L7.66666667,115.333333 L12.0531716,115.333333 C11.8017034,116.178279 11.6666667,117.07337 11.6666667,118 C11.6666667,123.154658 15.8453423,127.333333 21,127.333333 C26.1546577,127.333333 30.3333333,123.154658 30.3333333,118 C30.3333333,117.07337 30.1982966,116.178279 29.9468284,115.333333 L29.9468284,115.333333 Z M21,124.666667 C24.6818983,124.666667 27.6666667,121.681898 27.6666667,118 C27.6666667,114.318102 24.6818983,111.333333 21,111.333333 C17.3181017,111.333333 14.3333333,114.318102 14.3333333,118 C14.3333333,121.681898 17.3181017,124.666667 21,124.666667 Z M26.3333333,105.987704 C26.3333333,105.258115 26.9086736,104.666667 27.6543706,104.666667 L33.012296,104.666667 C33.7418848,104.666667 34.3333333,105.242007 34.3333333,105.987704 L34.3333333,111.345629 C34.3333333,112.075218 33.7579931,112.666667 33.012296,112.666667 L27.6543706,112.666667 C26.9247819,112.666667 26.3333333,112.091326 26.3333333,111.345629 L26.3333333,105.987704 Z" id="instagram" sketch:type="MSShapeGroup"></path>
            </g>
        </g>
    </g>
</svg>