<?xml version="1.0" encoding="UTF-8" standalone="no"?>
<svg width="60px" height="60px" viewBox="0 0 60 60" version="1.1" xmlns="http://www.w3.org/2000/svg" xmlns:xlink="http://www.w3.org/1999/xlink" xmlns:sketch="http://www.bohemiancoding.com/sketch/ns">
    <!-- Generator: Sketch 3.3.3 (12072) - http://www.bohemiancoding.com/sketch -->
    <title>linkedin</title>
    <desc>Created with Sketch.</desc>
    <defs></defs>
    <g id="soical" stroke="none" stroke-width="1" fill="none" fill-rule="evenodd" sketch:type="MSPage">
        <g id="social" sketch:type="MSArtboardGroup" transform="translate(-773.000000, -138.000000)">
            <g id="slices" sketch:type="MSLayerGroup" transform="translate(173.000000, 138.000000)"></g>
            <g id="square-flat" sketch:type="MSLayerGroup" transform="translate(173.000000, 138.000000)" fill="#346DA6">
                <path d="M602.995937,0 L657.004063,0 C658.658673,0 660,1.33730974 660,2.99593743 L660,57.0040626 C660,58.6586731 658.66269,60 657.004063,60 L602.995937,60 C601.341327,60 600,58.6626903 600,57.0040626 L600,2.99593743 C600,1.34132688 601.33731,0 602.995937,0 Z" id="square-7" sketch:type="MSShapeGroup"></path>
            </g>
            <g id="icon" sketch:type="MSLayerGroup" transform="translate(182.000000, 150.000000)" fill="#FFFFFF">
                <path d="M612.883075,31.8231512 L612.883075,13.5243389 L607.22737,13.5243389 L607.22737,31.8231512 L612.883075,31.8231512 Z M612.883075,7.03821455 C612.849388,5.40065996 611.758016,4.15384615 609.985054,4.15384615 C608.211632,4.15384615 607.052885,5.40065996 607.052885,7.03821455 C607.052885,8.64020234 608.177944,9.92307692 609.917219,9.92307692 L609.950906,9.92307692 C611.758016,9.92307692 612.883075,8.64020234 612.883075,7.03821455 Z M622.110042,31.8231517 L622.110042,21.3973729 C622.110042,20.8394014 622.15037,20.28143 622.314447,19.8836682 C622.763034,18.7682778 623.783956,17.6136637 625.498199,17.6136637 C627.743896,17.6136637 629.152278,18.8881587 629.152278,21.3973727 L629.152278,31.8231516 L634.846154,31.8231517 L634.846154,21.1183872 C634.846154,15.3839878 631.785045,12.715669 627.70191,12.715669 C624.354081,12.715669 622.884572,14.5873593 622.068608,15.861302 L622.109489,13.4139123 L616.425462,13.4139123 C616.507224,15.1657215 616.425462,31.8231516 616.425462,31.8231516 L622.110042,31.8231517 Z" id="linkedin" sketch:type="MSShapeGroup"></path>
            </g>
        </g>
    </g>
</svg>