<?xml version="1.0" encoding="UTF-8" standalone="no"?>
<svg width="60px" height="60px" viewBox="0 0 60 60" version="1.1" xmlns="http://www.w3.org/2000/svg" xmlns:xlink="http://www.w3.org/1999/xlink" xmlns:sketch="http://www.bohemiancoding.com/sketch/ns">
    <!-- Generator: Sketch 3.3.3 (12072) - http://www.bohemiancoding.com/sketch -->
    <title>pinterest</title>
    <desc>Created with Sketch.</desc>
    <defs></defs>
    <g id="soical" stroke="none" stroke-width="1" fill="none" fill-rule="evenodd" sketch:type="MSPage">
        <g id="social" sketch:type="MSArtboardGroup" transform="translate(-673.000000, -138.000000)">
            <g id="slices" sketch:type="MSLayerGroup" transform="translate(173.000000, 138.000000)"></g>
            <g id="square-flat" sketch:type="MSLayerGroup" transform="translate(173.000000, 138.000000)" fill="#CA4738">
                <path d="M502.995937,0 L557.004063,0 C558.658673,0 560,1.33730974 560,2.99593743 L560,57.0040626 C560,58.6586731 558.66269,60 557.004063,60 L502.995937,60 C501.341327,60 500,58.6626903 500,57.0040626 L500,2.99593743 C500,1.34132688 501.33731,0 502.995937,0 Z" id="square-6" sketch:type="MSShapeGroup"></path>
            </g>
            <g id="icon" sketch:type="MSLayerGroup" transform="translate(182.000000, 150.000000)" fill="#FFFFFF">
                <path d="M523.759453,27.0844011 C530.365061,27.0844011 534.846154,20.9370493 534.846154,12.7083106 C534.846154,6.48790125 529.683296,0.692307692 521.838732,0.692307692 C512.076393,0.692307692 507.153846,7.8375106 507.153846,13.7957548 C507.153846,17.4035321 508.490871,20.6132513 511.361644,21.8095301 C511.831959,22.0055526 512.253387,21.8158437 512.390329,21.2845985 C512.483979,20.9163046 512.710449,19.9873019 512.808811,19.6009691 C512.946637,19.0748349 512.893627,18.8905376 512.513724,18.4317486 C511.686771,17.4341982 511.159029,16.1453197 511.159029,14.3176799 C511.159029,9.01725377 515.041996,4.2721247 521.274767,4.2721247 C526.791024,4.2721247 529.824066,7.71304229 529.824066,12.3105531 C529.824066,18.3583905 527.202438,23.462794 523.309459,23.462794 C521.159029,23.462794 519.551361,21.648082 520.066144,19.4226848 C520.68253,16.7655568 521.880551,13.8967726 521.880551,11.9786376 C521.880551,10.2625382 520.977913,8.82934871 519.109023,8.82934871 C516.911179,8.82934871 515.146248,11.1509534 515.146248,14.2593542 C515.146248,16.239122 515.802686,17.5785093 515.802686,17.5785093 C515.802686,17.5785093 513.553599,27.3053775 513.158676,29.0082484 C512.800565,30.5589913 512.746967,32.2633654 512.797326,33.7037705 C512.947815,34.9959561 514.199435,36.0482244 515.285252,34.6306686 C516.048592,33.3850835 516.86936,31.8120926 517.294028,30.2354939 C517.547297,29.3025828 518.740016,24.4699652 518.740016,24.4699652 C519.454765,25.860162 521.541289,27.0844011 523.759453,27.0844011 Z" id="pinterest" sketch:type="MSShapeGroup"></path>
            </g>
        </g>
    </g>
</svg>