<?xml version="1.0" encoding="UTF-8" standalone="no"?>
<svg width="60px" height="60px" viewBox="0 0 60 60" version="1.1" xmlns="http://www.w3.org/2000/svg" xmlns:xlink="http://www.w3.org/1999/xlink" xmlns:sketch="http://www.bohemiancoding.com/sketch/ns">
    <!-- Generator: Sketch 3.3.3 (12072) - http://www.bohemiancoding.com/sketch -->
    <title>pocket</title>
    <desc>Created with Sketch.</desc>
    <defs></defs>
    <g id="soical" stroke="none" stroke-width="1" fill="none" fill-rule="evenodd" sketch:type="MSPage">
        <g id="social" sketch:type="MSArtboardGroup" transform="translate(-173.000000, -438.000000)">
            <g id="slices" sketch:type="MSLayerGroup" transform="translate(173.000000, 138.000000)"></g>
            <g id="square-flat" sketch:type="MSLayerGroup" transform="translate(173.000000, 138.000000)" fill="#CA3861">
                <path d="M2.99593743,300 L57.0040626,300 C58.6586731,300 60,301.33731 60,302.995937 L60,357.004063 C60,358.658673 58.6626903,360 57.0040626,360 L2.99593743,360 C1.34132688,360 0,358.66269 0,357.004063 L0,302.995937 C0,301.341327 1.33730974,300 2.99593743,300 Z" id="square-31" sketch:type="MSShapeGroup"></path>
            </g>
            <g id="icon" sketch:type="MSLayerGroup" transform="translate(182.000000, 150.000000)" fill="#FFFFFF">
                <path d="M32.913581,304.153846 C35.2534693,304.153846 37.1538462,306.067336 37.1538462,308.427746 L37.1538462,320.264561 C37.1538462,320.484324 37.1373798,320.700222 37.1056224,320.911071 C37.1375744,321.226697 37.1538462,321.545664 37.1538462,321.867521 C37.1538462,328.653072 29.9215233,334.153846 21,334.153846 C12.0784767,334.153846 4.84615385,328.653072 4.84615385,321.867521 C4.84615385,321.545636 4.86242839,321.226643 4.89438578,320.91099 C4.86262405,320.700176 4.84615385,320.484305 4.84615385,320.264561 L4.84615385,308.427746 C4.84615385,306.068072 6.74458522,304.153846 9.08641899,304.153846 L32.913581,304.153846 Z M14.1274444,313.021449 L21,319.894004 L27.8725556,313.021449 C28.7100749,312.183929 30.0697896,312.185757 30.9057563,313.021724 C31.7434275,313.859395 31.7449694,315.215986 30.9060313,316.054924 L22.5634232,324.397532 C22.1396976,324.821258 21.5823084,325.030141 21.0267054,325.024855 C20.4539078,325.044521 19.8746641,324.83562 19.4365768,324.397532 L11.0939687,316.054924 C10.2564494,315.217405 10.258277,313.85769 11.0942437,313.021724 C11.9319149,312.184053 13.2885063,312.182511 14.1274444,313.021449 Z" id="pocket" sketch:type="MSShapeGroup"></path>
            </g>
        </g>
    </g>
</svg>