<?xml version="1.0" encoding="UTF-8" standalone="no"?>
<svg width="60px" height="60px" viewBox="0 0 60 60" version="1.1" xmlns="http://www.w3.org/2000/svg" xmlns:xlink="http://www.w3.org/1999/xlink" xmlns:sketch="http://www.bohemiancoding.com/sketch/ns">
    <!-- Generator: Sketch 3.3.3 (12072) - http://www.bohemiancoding.com/sketch -->
    <title>quora</title>
    <desc>Created with Sketch.</desc>
    <defs></defs>
    <g id="soical" stroke="none" stroke-width="1" fill="none" fill-rule="evenodd" sketch:type="MSPage">
        <g id="social" sketch:type="MSArtboardGroup" transform="translate(-1073.000000, -438.000000)">
            <g id="slices" sketch:type="MSLayerGroup" transform="translate(173.000000, 138.000000)"></g>
            <g id="square-flat" sketch:type="MSLayerGroup" transform="translate(173.000000, 138.000000)" fill="#CA4738">
                <path d="M902.995937,300 L957.004063,300 C958.658673,300 960,301.33731 960,302.995937 L960,357.004063 C960,358.658673 958.66269,360 957.004063,360 L902.995937,360 C901.341327,360 900,358.66269 900,357.004063 L900,302.995937 C900,301.341327 901.33731,300 902.995937,300 Z" id="square-40" sketch:type="MSShapeGroup"></path>
            </g>
            <g id="icon" sketch:type="MSLayerGroup" transform="translate(182.000000, 150.000000)" fill="#FFFFFF">
                <path d="M935.840833,323.998572 C940.772638,312.012146 930.978104,302.313448 920.32056,301.846154 C918.244223,302.083155 916.25311,302.152019 914.602447,303.06559 C910.616184,304.70805 907.011189,308.61275 905.617096,312.821079 C901.873948,324.117519 912.334579,336.069513 924.609145,333.754061 C926.965377,337.463346 933.398927,337.615385 933.398927,337.615385 L933.389956,335.176512 C933.389956,335.176512 929.869737,334.132368 929.30591,331.92513 C931.752749,329.384303 934.367795,327.57952 935.840833,323.998572 L935.840833,323.998572 Z M927.263663,326.843923 C927.127752,326.911446 926.991841,326.979416 926.855482,327.046939 C924.705583,323.325132 919.198737,323.271919 919.198737,323.271919 L919.198737,326.523748 C919.198737,326.523748 921.963149,327.657327 922.363256,329.709396 C922.499166,329.844889 922.635526,329.980382 922.771436,330.115875 C911.662651,333.529133 907.511322,310.472088 918.074671,305.961024 C919.748659,304.86456 922.230037,305.406979 923.792336,306.164487 C931.3042,310.519935 931.308685,319.69902 927.263663,326.843923 L927.263663,326.843923 Z" id="quora" sketch:type="MSShapeGroup"></path>
            </g>
        </g>
    </g>
</svg>