<?xml version="1.0" encoding="UTF-8" standalone="no"?>
<svg width="60px" height="60px" viewBox="0 0 60 60" version="1.1" xmlns="http://www.w3.org/2000/svg" xmlns:xlink="http://www.w3.org/1999/xlink" xmlns:sketch="http://www.bohemiancoding.com/sketch/ns">
    <!-- Generator: Sketch 3.3.3 (12072) - http://www.bohemiancoding.com/sketch -->
    <title>readability</title>
    <desc>Created with Sketch.</desc>
    <defs></defs>
    <g id="soical" stroke="none" stroke-width="1" fill="none" fill-rule="evenodd" sketch:type="MSPage">
        <g id="social" sketch:type="MSArtboardGroup" transform="translate(-273.000000, -438.000000)">
            <g id="slices" sketch:type="MSLayerGroup" transform="translate(173.000000, 138.000000)"></g>
            <g id="square-flat" sketch:type="MSLayerGroup" transform="translate(173.000000, 138.000000)" fill="#CA4738">
                <path d="M102.995937,300 L157.004063,300 C158.658673,300 160,301.33731 160,302.995937 L160,357.004063 C160,358.658673 158.66269,360 157.004063,360 L102.995937,360 C101.341327,360 100,358.66269 100,357.004063 L100,302.995937 C100,301.341327 101.33731,300 102.995937,300 Z" id="square-32" sketch:type="MSShapeGroup"></path>
            </g>
            <g id="icon" sketch:type="MSLayerGroup" transform="translate(182.000000, 150.000000)" fill="#FFFFFF">
                <path d="M111.431209,317.589245 C111.192785,315.225672 109.29915,313.384615 106.998017,313.384615 C104.53526,313.384615 102.538462,315.492762 102.538462,318.093684 C102.538462,320.650285 104.468777,322.729857 106.873647,322.799254 C107.354507,324.23151 109.746768,329.206503 109.746768,329.511499 L109.746768,332.355018 C109.746768,332.711333 110.020153,333 110.357156,333 L112.312116,333 C112.649692,333 112.923077,332.711333 112.923077,332.355018 L111.457,317.642313 C111.457,317.616654 111.446684,317.600908 111.431209,317.589245 L111.431209,317.589245 Z M112.923077,322.848358 L113.714824,328.384615 L128.31775,328.384063 L129.076923,322.916359 C124.295969,319.472092 117.672508,319.427311 112.923077,322.848358 L112.923077,322.848358 Z M135.002556,313.384615 C132.70085,313.384615 130.807215,315.225981 130.568791,317.589786 C130.553316,317.600865 130.543,317.616608 130.543,317.642263 L129.076923,332.355114 C129.076923,332.711376 129.350881,333 129.687884,333 L131.642844,333 C131.98042,333 132.253805,332.711376 132.253805,332.355114 L132.253805,329.512017 C132.253805,329.207066 134.645493,324.231647 135.126353,322.799604 C137.531796,322.730217 139.461538,320.650372 139.461538,318.093567 C139.461538,315.493615 137.465313,313.384615 135.002556,313.384615 L135.002556,313.384615 Z M131.384615,313.921449 C131.384615,313.921449 130.990668,303.165793 120.99339,303 L120.99339,303.008116 C111.103457,303.256225 110.615385,313.887827 110.615385,313.887827 C111.990764,314.580562 112.292702,317.14687 112.292702,317.14687 L112.662854,321.461538 C113.385179,320.853439 116.143341,318.736393 121.04151,318.622773 C125.910596,318.751466 128.617465,320.818077 129.337146,321.423858 L129.707298,317.217593 C129.707298,317.217014 130.009236,314.614184 131.384615,313.921449 L131.384615,313.921449 Z" id="readability" sketch:type="MSShapeGroup"></path>
            </g>
        </g>
    </g>
</svg>