<?xml version="1.0" encoding="UTF-8" standalone="no"?>
<svg width="60px" height="60px" viewBox="0 0 60 60" version="1.1" xmlns="http://www.w3.org/2000/svg" xmlns:xlink="http://www.w3.org/1999/xlink" xmlns:sketch="http://www.bohemiancoding.com/sketch/ns">
    <!-- Generator: Sketch 3.3.3 (12072) - http://www.bohemiancoding.com/sketch -->
    <title>reddit</title>
    <desc>Created with Sketch.</desc>
    <defs></defs>
    <g id="soical" stroke="none" stroke-width="1" fill="none" fill-rule="evenodd" sketch:type="MSPage">
        <g id="social" sketch:type="MSArtboardGroup" transform="translate(-973.000000, -638.000000)">
            <g id="slices" sketch:type="MSLayerGroup" transform="translate(173.000000, 138.000000)"></g>
            <g id="square-flat" sketch:type="MSLayerGroup" transform="translate(173.000000, 138.000000)" fill="#424242">
                <path d="M802.995937,500 L857.004063,500 C858.658673,500 860,501.33731 860,502.995937 L860,557.004063 C860,558.658673 858.66269,560 857.004063,560 L802.995937,560 C801.341327,560 800,558.66269 800,557.004063 L800,502.995937 C800,501.341327 801.33731,500 802.995937,500 Z" id="square-59" sketch:type="MSShapeGroup"></path>
            </g>
            <g id="icon" sketch:type="MSLayerGroup" transform="translate(182.000000, 150.000000)" fill="#FFFFFF">
                <path d="M840.608,514.794882 L840.608,514.798205 C840.613744,514.880032 840.615385,514.961445 840.615385,515.042441 C840.615385,515.950436 840.327795,516.823539 839.847795,517.564141 C839.399795,518.25739 838.781949,518.837659 838.070564,519.231012 C838.116103,519.592382 838.142769,519.95666 838.142769,520.319692 C838.141949,522.274829 837.476103,524.196737 836.316718,525.736921 L836.316718,525.737752 L836.314256,525.737752 C834.170667,528.62456 830.879179,530.327153 827.555282,531.185719 L827.554462,531.185719 L827.552,531.187796 C825.779692,531.623517 823.952,531.846154 822.124718,531.846154 C819.401026,531.846154 816.679385,531.348958 814.139897,530.3176 L814.139077,530.315107 L814.136615,530.315107 C811.50359,529.216459 808.994872,527.469837 807.45641,524.910754 C806.628513,523.545024 806.174359,521.943365 806.174359,520.333814 C806.174359,519.969537 806.198564,519.605259 806.246564,519.244304 C805.553641,518.849289 804.953436,518.288958 804.507897,517.620215 C804.032,516.901629 803.730462,516.060093 803.692308,515.170375 L803.692308,515.167052 L803.692308,515.163729 L803.692308,515.156252 C803.693128,513.910148 804.227692,512.729672 805.058462,511.859476 C805.889231,510.98928 807.024,510.420642 808.241231,510.420642 L808.291692,510.420642 C808.419282,510.411919 808.548103,510.406934 808.676923,510.406934 C809.288205,510.406934 809.901128,510.507038 810.482872,510.732998 L810.486154,510.735491 L810.489436,510.736321 C810.986256,510.948159 811.479795,511.20361 811.91959,511.557504 C812.062359,511.481907 812.217846,511.396756 812.392205,511.329467 C815.058872,509.730715 818.158359,509.113894 821.179077,508.936116 C821.205333,507.420854 821.389128,505.834979 822.118974,504.446819 C822.726974,503.293757 823.781744,502.395732 825.037949,502.084621 L825.042872,502.082129 L825.049436,502.081298 C825.527795,501.987425 826.010256,501.944227 826.489436,501.944227 C827.765744,501.944227 829.027282,502.250353 830.207179,502.728026 C830.729436,501.929689 831.475692,501.306637 832.350769,500.957312 L832.358974,500.952328 L832.367179,500.949005 C832.880821,500.787012 833.423179,500.692308 833.968,500.692308 C834.542359,500.692308 835.121231,500.798642 835.66359,501.044124 L835.66359,501.042048 C835.66441,501.044124 835.665231,501.044124 835.665231,501.044124 C835.669333,501.04537 835.672615,501.047863 835.675487,501.047863 C836.453333,501.351081 837.111385,501.911413 837.577846,502.607985 C838.045128,503.307465 838.32,504.145262 838.32,505.006735 C838.32,505.165406 838.311385,505.324492 838.292923,505.483578 L838.291282,505.486901 C838.291282,505.489393 838.291282,505.492716 838.290462,505.495208 C838.198974,506.608394 837.642256,507.58534 836.853744,508.281912 C836.060308,508.981392 835.033026,509.403821 833.978667,509.403821 C833.809641,509.403821 833.638974,509.394267 833.469128,509.371422 C832.423385,509.290425 831.448205,508.778277 830.731897,508.016076 C830.013128,507.255122 829.549949,506.238301 829.549949,505.140899 C829.549949,505.087732 829.554872,505.033319 829.556513,504.980567 C828.574769,504.5382 827.532308,504.171015 826.49641,504.171845 C826.346667,504.171845 826.196923,504.180153 826.046769,504.195521 L826.045128,504.195521 C825.269333,504.271118 824.548513,504.766237 824.198974,505.478178 L824.198974,505.479009 L824.198974,505.481501 C823.668513,506.527397 823.562667,507.749825 823.546667,508.963531 C826.520205,509.16 829.511385,509.882325 832.134974,511.409217 L832.139077,511.409217 L832.176821,511.431647 C832.226462,511.461554 832.318769,511.512644 832.402051,511.557504 C832.582154,511.409633 832.772923,511.257193 832.990359,511.125937 C833.785846,510.589696 834.728205,510.32303 835.670564,510.32303 C836.089026,510.32303 836.507897,510.377028 836.914051,510.482531 L836.915692,510.482531 L836.932513,510.487516 C836.938256,510.488347 836.942769,510.490423 836.947692,510.490423 L836.947692,510.491254 C837.907692,510.738398 838.776205,511.296653 839.430154,512.0493 C840.083282,512.803192 840.523077,513.756877 840.608821,514.79239 L840.608821,514.794882 L840.608,514.794882 Z M835.803487,520.404427 C835.803487,519.057388 835.323487,517.70412 834.546462,516.614609 C832.996923,514.431435 830.592821,513.007554 828.092308,512.213785 L828.074667,512.207555 C827.594667,512.058438 827.109744,511.926351 826.621128,511.813371 C825.159795,511.476507 823.661128,511.308698 822.164513,511.308698 C820.154256,511.308698 818.14441,511.60984 816.219897,512.210878 C813.719795,513.014199 811.307897,514.428112 809.761641,516.618348 L809.761641,516.620009 C808.978051,517.713673 808.518974,519.071511 808.518974,520.423534 C808.518974,520.921145 808.580513,521.418756 808.710564,521.903075 L808.712205,521.903905 C808.993641,522.990508 809.543795,523.960808 810.25641,524.806082 C810.968615,525.653017 811.842051,526.375342 812.761026,526.964749 C812.964513,527.092267 813.168821,527.21397 813.378051,527.333181 C816.047179,528.841382 819.120821,529.502648 822.172308,529.502648 C822.68841,529.502648 823.207385,529.484371 823.720205,529.446573 C826.793026,529.189875 829.878974,528.271497 832.373333,526.394864 L832.374154,526.392787 C833.16841,525.798811 833.904,525.079394 834.485333,524.261119 C835.069538,523.442844 835.497436,522.527373 835.687385,521.533812 L835.687385,521.530905 L835.688205,521.530074 C835.765744,521.158735 835.803487,520.782412 835.803487,520.404427 Z M831.849026,504.941938 C831.849026,504.982644 831.849846,505.024596 831.853949,505.066963 L831.853949,505.069456 L831.853949,505.07444 C831.873231,505.597388 832.116923,506.0842 832.487795,506.443908 C832.860308,506.803617 833.354667,507.026254 833.85641,507.028331 L833.862974,507.028331 L833.869538,507.028331 C833.905641,507.031239 833.942564,507.031239 833.977846,507.031239 C834.484103,507.032069 834.986667,506.811094 835.364103,506.452631 C835.742359,506.092507 835.991385,505.602788 836.011487,505.075271 L836.012308,505.072779 L836.012308,505.069456 C836.01559,505.029165 836.017231,504.990951 836.017231,504.94983 C836.017231,504.406944 835.766564,503.889395 835.373949,503.506011 C834.982974,503.123041 834.456615,502.885866 833.937231,502.887112 C833.769846,502.887112 833.604103,502.910373 833.441231,502.961463 L833.436308,502.962294 L833.431385,502.964371 C833.003487,503.076935 832.602667,503.344017 832.314256,503.698741 C832.024615,504.051804 831.849026,504.48794 831.849026,504.941938 Z M809.899487,513.011707 C809.501949,512.824376 809.090872,512.690628 808.684718,512.692289 C808.616615,512.692289 808.547692,512.696443 808.47959,512.70392 L808.470154,512.70392 L808.460718,512.705166 C807.877333,512.721365 807.288615,512.978893 806.846769,513.391769 C806.404513,513.802983 806.112,514.35833 806.089436,514.970583 L806.089436,514.976398 L806.088615,514.981382 C806.084513,515.030811 806.082872,515.08024 806.082872,515.127592 C806.082872,515.505161 806.197333,515.87027 806.391385,516.202564 C806.534974,516.449708 806.723282,516.675668 806.936205,516.871722 C807.618051,515.360198 808.683077,514.077542 809.899487,513.011707 Z M838.228923,515.043272 C838.228103,514.716377 838.154256,514.390729 837.992615,514.087095 L837.988513,514.083357 L837.986872,514.078372 C837.770667,513.627283 837.430974,513.286681 837.021128,513.05449 C836.611692,512.821053 836.132513,512.701843 835.651692,512.701843 C835.217231,512.701843 834.784821,512.800285 834.400821,512.995508 C835.621333,514.068403 836.691692,515.357706 837.383795,516.875045 C837.606564,516.678991 837.796513,516.438909 837.938462,516.172242 C838.123897,515.822502 838.228923,515.430395 838.228923,515.043272 Z M828.532592,522.786413 C828.345465,522.679876 828.129112,522.615385 827.899771,522.615385 C827.71508,522.615385 827.523082,522.661705 827.352598,522.761115 C825.738275,523.60699 823.839813,524.070191 821.955151,524.070191 C820.540944,524.070191 819.135262,523.808304 817.861908,523.259233 L817.855413,523.256383 L817.848919,523.254245 C817.656921,523.185478 817.438133,523.038679 817.199455,522.899362 C817.078087,522.830595 816.951441,522.761827 816.810995,522.711588 C816.672172,522.659567 816.51833,522.623223 816.353529,522.623223 C816.217142,522.623223 816.073854,522.650303 815.932596,522.706599 C815.925289,522.709094 815.918389,522.711588 815.911082,522.714082 L815.911894,522.714082 C815.689859,522.78855 815.516127,522.92466 815.404501,523.086068 C815.288003,523.252464 815.230769,523.445939 815.230769,523.638702 C815.230769,523.81258 815.277449,523.986815 815.374463,524.144659 C815.466606,524.294309 815.60827,524.425074 815.793773,524.512725 C817.613894,525.590558 819.757123,526.0787 821.908471,526.076918 C823.848337,526.076918 825.799568,525.682841 827.537289,524.965237 L827.546625,524.960249 L827.555149,524.955973 C827.784085,524.837322 828.088521,524.73043 828.375503,524.574723 C828.517573,524.495266 828.65599,524.403695 828.774923,524.284332 C828.893856,524.165681 828.989651,524.019239 829.043638,523.846073 L829.043638,523.84536 C829.065963,523.76911 829.076923,523.694286 829.076923,523.620174 C829.076923,523.478363 829.037143,523.344035 828.971385,523.223246 C828.875184,523.041885 828.717283,522.892592 828.532592,522.786413 Z M815.927583,515.692308 C814.905492,515.692308 814.076923,516.517446 814.076923,517.542968 L814.076923,518.457032 C814.076923,519.479124 814.902061,520.307692 815.927583,520.307692 L816.841648,520.307692 C817.863739,520.307692 818.692308,519.482554 818.692308,518.457032 L818.692308,517.542968 C818.692308,516.520876 817.867169,515.692308 816.841648,515.692308 L815.927583,515.692308 Z M827.466044,515.692308 C826.443953,515.692308 825.615385,516.517446 825.615385,517.542968 L825.615385,518.457032 C825.615385,519.479124 826.440523,520.307692 827.466044,520.307692 L828.380109,520.307692 C829.402201,520.307692 830.230769,519.482554 830.230769,518.457032 L830.230769,517.542968 C830.230769,516.520876 829.405631,515.692308 828.380109,515.692308 L827.466044,515.692308 Z" id="reddit" sketch:type="MSShapeGroup"></path>
            </g>
        </g>
    </g>
</svg>