<?xml version="1.0" encoding="UTF-8" standalone="no"?>
<svg width="60px" height="60px" viewBox="0 0 60 60" version="1.1" xmlns="http://www.w3.org/2000/svg" xmlns:xlink="http://www.w3.org/1999/xlink" xmlns:sketch="http://www.bohemiancoding.com/sketch/ns">
    <!-- Generator: Sketch 3.3.3 (12072) - http://www.bohemiancoding.com/sketch -->
    <title>spotify</title>
    <desc>Created with Sketch.</desc>
    <defs></defs>
    <g id="soical" stroke="none" stroke-width="1" fill="none" fill-rule="evenodd" sketch:type="MSPage">
        <g id="social" sketch:type="MSArtboardGroup" transform="translate(-273.000000, -338.000000)">
            <g id="slices" sketch:type="MSLayerGroup" transform="translate(173.000000, 138.000000)"></g>
            <g id="square-flat" sketch:type="MSLayerGroup" transform="translate(173.000000, 138.000000)" fill="#57BA63">
                <path d="M102.995937,200 L157.004063,200 C158.658673,200 160,201.33731 160,202.995937 L160,257.004063 C160,258.658673 158.66269,260 157.004063,260 L102.995937,260 C101.341327,260 100,258.66269 100,257.004063 L100,202.995937 C100,201.341327 101.33731,200 102.995937,200 Z" id="square-22" sketch:type="MSShapeGroup"></path>
            </g>
            <g id="icon" sketch:type="MSLayerGroup" transform="translate(182.000000, 150.000000)" fill="#FFFFFF">
                <path d="M129.676152,229.537739 C129.459295,229.531377 129.243134,229.467054 129.047129,229.343355 C129.045044,229.343355 128.79413,229.181486 128.279095,228.900867 C127.763366,228.619541 127.003673,228.232188 126.05701,227.825749 C124.16577,227.007217 121.518313,226.101036 118.559472,225.753266 C117.651037,225.647239 116.77666,225.582209 115.940511,225.554641 C112.180273,225.428822 109.224907,225.997836 108.02038,226.279162 C107.617249,226.373173 107.43167,226.430428 107.430975,226.430428 C106.760249,226.630466 106.058245,226.238165 105.86085,225.556762 C105.66554,224.873945 106.049209,224.158614 106.719241,223.959282 C106.804732,223.934542 110.617099,222.80429 116.020442,222.981709 C116.921231,223.01281 117.868589,223.081375 118.847224,223.196591 C125.412001,223.97766 130.298225,227.112538 130.388582,227.159897 C130.982157,227.538061 131.161481,228.33256 130.790322,228.934089 C130.544273,229.338407 130.112645,229.552582 129.676152,229.537739 Z M134.278794,221.946881 C133.9688,222.449451 133.430829,222.719468 132.885213,222.700383 C132.614142,222.691194 132.343766,222.610613 132.099107,222.455106 C132.097717,222.457227 132.042113,222.41835 131.892677,222.329994 C131.74185,222.240931 131.515263,222.110164 131.22056,221.949709 C130.626985,221.625972 129.756778,221.180656 128.66624,220.710601 C126.490723,219.769785 123.445695,218.730716 120.044105,218.332053 C119.002915,218.209061 117.995783,218.136255 117.033135,218.104447 C112.706429,217.958836 109.305533,218.612672 107.923073,218.936409 C107.461557,219.045264 107.252346,219.107467 107.250956,219.109587 C106.413417,219.356985 105.53348,218.867845 105.288821,218.014677 C105.042772,217.160803 105.523054,216.266638 106.362678,216.020655 C106.469021,215.987433 110.881219,214.680468 117.135308,214.888282 C118.177887,214.922917 119.271901,215.000671 120.405533,215.134972 C128.012195,216.041153 133.667147,219.665171 133.779746,219.729494 C134.518588,220.203084 134.743785,221.194793 134.278794,221.946881 Z M138.01818,214.863542 C137.644937,215.467192 136.997147,215.789515 136.344492,215.767603 C136.021293,215.757 135.695313,215.661575 135.402695,215.473553 C135.402695,215.473553 135.33458,215.429729 135.158036,215.324408 C134.982883,215.221208 134.716678,215.066408 134.366371,214.875558 C133.668537,214.497394 132.641944,213.973618 131.357486,213.418035 C128.792739,212.310401 125.20557,211.084018 121.199979,210.613963 C119.971125,210.469765 118.783279,210.384943 117.650342,210.348187 C111.702772,210.146028 107.240531,211.226801 106.304294,211.479146 C106.170844,211.514489 106.12358,211.528626 106.12358,211.528626 C105.117838,211.827623 104.064137,211.239524 103.769435,210.21742 C103.474732,209.193902 104.050236,208.120197 105.058064,207.8212 C105.185953,207.785858 110.393292,206.242098 117.774061,206.488082 C119.005001,206.528372 120.295019,206.618849 121.632997,206.777183 C130.614474,207.84806 137.282119,212.123793 137.417654,212.20084 C138.305237,212.766319 138.574223,213.960188 138.01818,214.863542 Z" id="Spotify" sketch:type="MSShapeGroup"></path>
            </g>
        </g>
    </g>
</svg>