<?xml version="1.0" encoding="UTF-8" standalone="no"?>
<svg width="60px" height="60px" viewBox="0 0 60 60" version="1.1" xmlns="http://www.w3.org/2000/svg" xmlns:xlink="http://www.w3.org/1999/xlink" xmlns:sketch="http://www.bohemiancoding.com/sketch/ns">
    <!-- Generator: Sketch 3.3.3 (12072) - http://www.bohemiancoding.com/sketch -->
    <title>steam</title>
    <desc>Created with Sketch.</desc>
    <defs></defs>
    <g id="soical" stroke="none" stroke-width="1" fill="none" fill-rule="evenodd" sketch:type="MSPage">
        <g id="social" sketch:type="MSArtboardGroup" transform="translate(-173.000000, -738.000000)">
            <g id="slices" sketch:type="MSLayerGroup" transform="translate(173.000000, 138.000000)"></g>
            <g id="square-flat" sketch:type="MSLayerGroup" transform="translate(173.000000, 138.000000)" fill="#424242">
                <path d="M2.99593743,600 L57.0040626,600 C58.6586731,600 60,601.33731 60,602.995937 L60,657.004063 C60,658.658673 58.6626903,660 57.0040626,660 L2.99593743,660 C1.34132688,660 0,658.66269 0,657.004063 L0,602.995937 C0,601.341327 1.33730974,600 2.99593743,600 Z" id="square-61" sketch:type="MSShapeGroup"></path>
            </g>
            <g id="icon" sketch:type="MSLayerGroup" transform="translate(182.000000, 150.000000)" fill="#FFFFFF">
                <path d="M33.2822145,616.25351 C31.5865507,616.25351 30.2142564,614.800947 30.2142564,613.00987 C30.2142564,611.218793 31.586919,609.766621 33.2822145,609.766621 C34.9760367,609.766621 36.3494359,611.218793 36.3494359,613.00987 C36.3494359,614.800947 34.9760367,616.25351 33.2822145,616.25351 Z M35.3220513,619.114462 L31.1842051,622.856478 C31.2289231,623.155177 31.2596923,623.458666 31.2596923,623.769993 C31.2596923,626.955539 28.8166154,629.538462 25.8045128,629.538462 C23.2059487,629.538462 21.0361026,627.616509 20.486359,625.044908 L10.2586667,621.375608 C9.45005128,622.024387 8.44533333,622.414089 7.35241026,622.414089 C4.69394872,622.414089 2.53846154,620.135091 2.53846154,617.324008 C2.53846154,614.513359 4.69394872,612.234797 7.35241026,612.234797 C9.63835897,612.234797 11.5481026,613.919879 12.0408205,616.177542 L21.9206154,619.722311 C22.8830769,618.690797 24.2106667,618.044195 25.6810256,618.009362 L27.1608205,613.252813 C27.1567179,613.158327 27.1481026,613.065146 27.1481026,612.969789 C27.1481026,609.375382 29.9046154,606.461538 33.3044103,606.461538 C36.7050256,606.461538 39.4615385,609.375382 39.4615385,612.969789 C39.4615385,615.816577 37.7298462,618.230556 35.3220513,619.114462 L35.3220513,619.114462 Z M10.3796923,615.581014 C9.80451282,614.486363 8.70010256,613.74484 7.43241026,613.74484 C5.57025641,613.74484 4.06133333,615.340661 4.06133333,617.308768 C4.06133333,619.276875 5.57025641,620.87226 7.43241026,620.87226 C7.77620513,620.87226 8.10769231,620.817397 8.42030769,620.715944 L6.81866667,620.141622 C5.528,619.410985 5.04225641,617.712404 5.73353846,616.347792 C6.42523077,614.98405 8.03179487,614.471124 9.32164103,615.201761 L10.3796923,615.581014 L10.3796923,615.581014 Z M33.2844253,617.556674 C35.6728761,617.556674 37.6108718,615.509646 37.6108718,612.984531 C37.6108718,611.213558 36.6584963,609.678108 35.2661957,608.918267 C34.6723772,608.594193 33.9985347,608.411206 33.2844253,608.411206 C30.8959745,608.411206 28.9602051,610.458235 28.9602051,612.984531 C28.9602051,615.509646 30.8959745,617.556674 33.2844253,617.556674 Z M29.417641,624.264632 C29.417641,622.138902 27.7876923,620.415503 25.7774359,620.415503 C25.4951795,620.415503 25.2227692,620.452949 24.9593846,620.516521 L26.9938462,621.246288 C28.2841026,621.977796 28.7686154,623.675942 28.0773333,625.039247 C27.3864615,626.40473 25.7798974,626.917222 24.4900513,626.186584 L22.297641,625.399777 C22.7558974,626.971214 24.1405128,628.113326 25.7774359,628.113326 C27.7876923,628.113761 29.417641,626.389926 29.417641,624.264632 L29.417641,624.264632 Z" id="steam" sketch:type="MSShapeGroup"></path>
            </g>
        </g>
    </g>
</svg>