<?xml version="1.0" encoding="utf-8"?>
<!-- Generator: Adobe Illustrator 21.0.0, SVG Export Plug-In . SVG Version: 6.00 Build 0)  -->
<svg version="1.1" id="Layer_1" xmlns:sketch="http://www.bohemiancoding.com/sketch/ns"
	 xmlns="http://www.w3.org/2000/svg" xmlns:xlink="http://www.w3.org/1999/xlink" x="0px" y="0px" viewBox="0 0 60 60"
	 style="enable-background:new 0 0 60 60;" xml:space="preserve">
<style type="text/css">
	.st0{fill:#FF7626;}
	.st1{enable-background:new    ;}
	.st2{fill:#FFFFFF;}
</style>
<path class="st0" d="M57,60H3c-1.6,0-3-1.3-3-3V3c0-1.6,1.4-3,3-3h54c1.7,0,3,1.4,3,3v54C60,58.7,58.7,60,57,60z"/>
<g id="Shape_1_1_" class="st1">
	<g id="Shape_1">
		<g>
			<path class="st2" d="M46.5,21.8c-1.8-3.4-7.7-4.2-12.8-3.1c-1.1,0.2-2.2,0.4-3.3,0.7c-0.7,0.2-1.4,0.4-2.1,0.6l0,0v-0.1
				c0.3-0.6,0.9-1.3,1-2c-1.4-0.4-2.9-0.8-4.3-1.2c-0.3,0.9-0.7,1.7-1,2.6c-0.7,1.7-1.6,3.2-2.7,4.5c-0.3,0.4-0.7,1-1.2,1.2L20,25.1
				c0.2,0.3,2.6,1.6,3,1.7c0.6-0.6,1.2-1.3,1.8-1.9c0.2-0.2,0.4-0.5,0.6-0.7c0.7-0.3,1.3-0.6,2-0.8c0,0,0,0.1,0.1,0.1
				c-0.8,1.5-2.1,3.6-3.4,4.9v0.1c0.6,0.5,1.2,1,1.7,1.6h0.1c0.6-0.6,1.2-1.1,1.8-1.7c0.3-0.3,0.9-0.9,0.9-0.9h1.6v2.8
				c0,0-4,0-6.1,0c0,0.7,0,2.1,0,2.1h6.1c0,0,0,4.6,0,5.2c-0.4,0.1-0.8,0-1.1-0.1c-1.9-0.4-1.6-1.8-1.4-3.8h-4.3
				c-0.5,1.5-0.3,3.8,0.3,4.7c0.5,0.8,0.8,1.3,1.8,1.7c0.8,0.3,1.7,0.4,2.9,0.4c3.2,0,5.9-0.6,8-1.7c0.6-0.3,1.3-0.6,1.8-1.1h0.1
				c0.1,0.4,0.4,2,0.7,2.2c1.1-0.5,2.2-1,3.4-1.5c-0.8-1.9-1.5-3.8-2.3-5.7c-0.3,0-2.7,0.7-2.8,0.9c0.2,0.6,0.3,1.3,0.5,1.9
				c-0.7,0.5-1.5,1-2.4,1.2c-0.2-0.2-0.1-0.8-0.1-1.2c0-1.1,0-3.4,0-3.4h6V30h-6v-2.7h6v-2.1H30.7c0,0,0,0-0.1-0.1
				c0.5-0.7,1.1-1.3,1.5-2.2c0,0,0,0,0-0.1c-0.6-0.1-1.1-0.3-1.7-0.4c0,0,0-0.1-0.1-0.1c1-0.3,2-0.6,3-1c2.9-0.9,7.6-1.5,9,1.2
				c0.5,1.1,0.4,2.9,0.4,4.5v8c0,2.2,0.2,3.6-1,4.9c-1,0.9-2.2,1.1-3,1.1s-1.9-0.3-3-0.6l0,0c-0.2,0.4-0.6,2-0.6,2.5
				c0.9,0.2,1.8,0.3,2.8,0.5c0.9,0.1,2.1,0.1,3,0c3.5-0.4,5.1-1.6,6.1-4.1C48,35.3,47.7,23.9,46.5,21.8z M19.3,22.6
				c3.6-0.8,3.1-5.6-1-5.5c-0.2,0-0.5,0.1-0.7,0.1c-0.9,0.3-1.6,1-1.9,1.9C14.8,21.2,17.2,23,19.3,22.6z M20,27.2
				c-0.6-0.6-1.2-1.2-1.8-1.6c-0.5-0.4-1.8-1.6-2.4-1.8c-0.6,1-1.3,2-1.9,3c0.3,0.2,0.7,0.4,1,0.6c0.9,0.6,1.8,1.1,2.6,1.6
				c0.6,0.4,1.2,0.9,1.4,1.5c0.5,0.9-0.1,2.1-0.5,2.7c-1.1,1.7-2.6,3.1-4,4.5c-1.1,1.1-2.1,2-2.1,2s0.6,0.3,0.9,0.5
				c1.7,1.1,3.7,2.5,3.9,2.4c1.2-3,2.8-5.6,3.9-8.8c0.4-1.2,0.9-3,0.5-4.6C21.4,28.5,20.7,27.9,20,27.2z"/>
		</g>
	</g>
</g>
</svg>
