<?xml version="1.0" encoding="utf-8"?>
<!-- Generator: Adobe Illustrator 21.0.0, SVG Export Plug-In . SVG Version: 6.00 Build 0)  -->
<svg version="1.1" id="Layer_1" xmlns:sketch="http://www.bohemiancoding.com/sketch/ns"
	 xmlns="http://www.w3.org/2000/svg" xmlns:xlink="http://www.w3.org/1999/xlink" x="0px" y="0px" viewBox="0 0 60 60"
	 style="enable-background:new 0 0 60 60;" xml:space="preserve">
<style type="text/css">
	.st0{fill:#FFE591;}
	.st1{enable-background:new    ;}
	.st2{fill:#FFFFFF;}
	.st3{fill:#CD201F;}
	.st4{fill:#232323;}
	.st5{fill:#DD880C;}
</style>
<path class="st0" d="M57,60H3c-1.6,0-3-1.3-3-3V3c0-1.6,1.4-3,3-3h54c1.7,0,3,1.4,3,3v54C60,58.7,58.7,60,57,60z"/>
<g>
	<g id="Shape_4_1_" class="st1">
		<g id="Shape_4">
			<g>
				<path class="st2" d="M37.7,34.4c-0.4-4-5.7-6.8-11.9-6.2c-6.2,0.6-10.8,4.3-10.4,8.3c0.4,4,5.7,6.8,11.9,6.2
					C33.4,42.2,38.1,38.4,37.7,34.4z"/>
			</g>
		</g>
	</g>
	<g id="Shape_3_1_" class="st1">
		<g id="Shape_3">
			<g>
				<path class="st3" d="M39.6,29.5c-0.5-0.2-0.9-0.3-0.6-0.9c0.6-1.5,0.7-2.8,0-3.7c-1.2-1.7-4.5-1.6-8.3,0c0,0-1.2,0.5-0.9-0.4
					c0.6-1.9,0.5-3.4-0.4-4.3c-2.1-2-7.5,0.1-12.2,4.7c-3.5,3.5-5.6,7.2-5.6,10.3c0,6.1,7.9,9.8,15.6,9.8c10.1,0,16.9-5.8,16.9-10.4
					C44.1,31.7,41.7,30.1,39.6,29.5z M27.2,42.8c-6.2,0.6-11.5-2.2-11.9-6.2c-0.4-4,4.3-7.7,10.4-8.3c6.2-0.6,11.5,2.2,11.9,6.2
					C38.1,38.4,33.4,42.2,27.2,42.8z"/>
			</g>
		</g>
	</g>
	<g id="Shape_2_1_" class="st1">
		<g id="Shape_2">
			<g>
				<path class="st4" d="M27.8,31.2c-2.9-0.7-6.3,0.7-7.5,3.2c-1.3,2.6,0,5.5,2.9,6.4c3.1,1,6.7-0.5,8-3.3
					C32.4,34.8,30.8,32,27.8,31.2z M25.5,37.8c-0.6,0.9-1.9,1.3-2.8,0.9c-0.9-0.4-1.2-1.5-0.6-2.4c0.6-0.9,1.8-1.3,2.8-0.9
					C25.8,35.8,26.1,36.9,25.5,37.8z M27.5,35.4c-0.2,0.4-0.7,0.5-1.1,0.4c-0.4-0.1-0.5-0.6-0.3-0.9c0.2-0.4,0.7-0.5,1-0.4
					C27.6,34.6,27.7,35,27.5,35.4z"/>
			</g>
		</g>
	</g>
	<g id="Shape_1_1_" class="st1">
		<g id="Shape_1">
			<g>
				<path class="st5" d="M45.9,18.4c-2.4-2.8-5.9-3.8-9.2-3.1h0c-0.8,0.2-1.2,0.9-1.1,1.7c0.2,0.8,0.9,1.3,1.7,1.1
					c2.3-0.5,4.8,0.2,6.5,2.2c1.7,2,2.2,4.6,1.4,7l0,0c-0.2,0.8,0.2,1.6,0.9,1.8c0.7,0.2,1.5-0.2,1.8-0.9c0,0,0,0,0,0
					C49,24.9,48.3,21.1,45.9,18.4z M37.8,20.3c-0.6,0.1-1.1,0.8-0.9,1.5c0.1,0.7,0.8,1.1,1.4,1v0c0.8-0.2,1.6,0.1,2.2,0.7
					c0.6,0.7,0.7,1.6,0.5,2.3h0c-0.2,0.7,0.1,1.4,0.8,1.6c0.6,0.2,1.3-0.1,1.5-0.8c0.5-1.6,0.2-3.4-1-4.8
					C41.1,20.5,39.4,20,37.8,20.3z"/>
			</g>
		</g>
	</g>
</g>
</svg>
