<?xml version="1.0" encoding="UTF-8" standalone="no"?>
<svg width="60px" height="60px" viewBox="0 0 60 60" version="1.1" xmlns="http://www.w3.org/2000/svg" xmlns:xlink="http://www.w3.org/1999/xlink" xmlns:sketch="http://www.bohemiancoding.com/sketch/ns">
    <!-- Generator: Sketch 3.3.3 (12072) - http://www.bohemiancoding.com/sketch -->
    <title>wikipedia</title>
    <desc>Created with Sketch.</desc>
    <defs></defs>
    <g id="soical" stroke="none" stroke-width="1" fill="none" fill-rule="evenodd" sketch:type="MSPage">
        <g id="social" sketch:type="MSArtboardGroup" transform="translate(-773.000000, -538.000000)">
            <g id="slices" sketch:type="MSLayerGroup" transform="translate(173.000000, 138.000000)"></g>
            <g id="square-flat" sketch:type="MSLayerGroup" transform="translate(173.000000, 138.000000)" fill="#424242">
                <path d="M602.995937,400 L657.004063,400 C658.658673,400 660,401.33731 660,402.995937 L660,457.004063 C660,458.658673 658.66269,460 657.004063,460 L602.995937,460 C601.341327,460 600,458.66269 600,457.004063 L600,402.995937 C600,401.341327 601.33731,400 602.995937,400 Z" id="square-47" sketch:type="MSShapeGroup"></path>
            </g>
            <g id="icon" sketch:type="MSLayerGroup" transform="translate(182.000000, 150.000000)" fill="#FFFFFF">
                <path d="M638.282692,407.615385 L631.126154,407.615385 L630.614615,407.70821 L630.614615,408.43298 C630.614615,408.518104 630.858846,408.589446 630.926538,408.642547 C630.991154,408.700107 631.166154,408.73132 631.238462,408.73132 L631.886923,408.765369 C632.622308,408.801851 632.846154,408.970072 633.132308,409.253819 C633.413846,409.547699 633.46,410.046282 633.240385,410.747136 L626.916154,428.149316 L626.675,428.073515 L622.656923,418.548142 C622.715385,418.405052 622.75,418.324792 622.75,418.324792 L626.039615,411.19951 C626.421923,410.447986 626.792308,409.776318 626.980769,409.463386 C627.324231,408.89265 627.491538,408.784826 628.427692,408.734968 C628.619231,408.734968 628.692308,408.636062 628.692308,408.435818 L628.692308,407.715101 L628.644231,407.637679 C628.644231,407.637679 624.712308,407.623492 622.921538,407.637679 L622.923077,407.712669 L622.923077,408.433791 C622.923077,408.521752 622.877308,408.591878 622.940385,408.644979 C623.008077,408.702539 623.036538,408.73213 623.109231,408.73213 L623.377308,408.768207 C624.109615,408.804688 624.436538,409.026011 624.536538,409.165046 C624.711538,409.414338 624.792692,409.680249 624.369615,410.750379 L621.836538,416.595559 L619.547692,411.173567 C618.797308,409.441091 618.611538,408.90481 619.743077,408.804688 L620.047308,408.730509 C620.265,408.730509 620.230769,408.63971 620.230769,408.467435 L620.230769,407.709426 L620.208077,407.647407 C620.208077,407.647407 616.015769,407.647407 614.103077,407.648624 L614.076923,407.723208 L614.076923,408.483244 C614.076923,408.653897 614.236923,408.697675 614.533077,408.744696 C615.592308,408.905216 615.574231,409.033712 616.620769,411.438668 C616.777692,411.799026 617.239615,412.885775 617.239615,412.885775 L619.626154,418.313848 C619.626154,418.313848 619.896538,419.011054 620.320385,420.093345 L616.852692,428.104322 L616.654231,428.045546 C616.654231,428.045546 611.273462,414.90443 609.716923,410.507573 C609.553077,410.054795 609.481923,409.71592 609.481923,409.507164 C609.481923,409.060466 609.829615,408.81847 610.525385,408.786042 L611.583077,408.745912 C611.799231,408.745912 612.153846,408.650249 612.153846,408.451221 L612.153846,407.730099 L611.835385,407.655514 C611.835385,407.655514 605.242692,407.647002 603.911538,407.655514 L603.692308,407.730099 L603.692308,408.488919 C603.692308,408.625117 603.865,408.709836 604.164231,408.745912 C604.983077,408.798203 605.533077,408.948183 605.791154,409.201123 C606.048077,409.455684 606.326923,410.098978 606.688077,411.101414 C608.645,416.542864 612.804231,426.253483 614.828846,431.784921 C615.411154,433.294048 616.145769,433.529152 617.034231,431.737495 C617.949231,429.772347 619.795,425.410351 621.141154,422.190637 C622.400769,425.402649 624.115769,429.748026 624.943077,431.716822 C625.601923,433.292426 626.353077,433.448081 627.114615,431.763843 C629.107692,426.634515 634.93,411.197888 634.93,411.197888 C635.181538,410.440285 635.533077,409.856577 635.986154,409.432579 C636.435385,409.01385 637.104615,408.777124 638.043077,408.730914 C638.233077,408.730914 638.307692,408.629981 638.307692,408.434602 L638.307692,407.709832 L638.282692,407.615385 L638.282692,407.615385 Z" id="wikipedia" sketch:type="MSShapeGroup"></path>
            </g>
        </g>
    </g>
</svg>