<?xml version="1.0" encoding="utf-8"?>
<!-- Generator: Adobe Illustrator 21.0.0, SVG Export Plug-In . SVG Version: 6.00 Build 0)  -->
<svg version="1.1" id="Layer_1" xmlns:sketch="http://www.bohemiancoding.com/sketch/ns"
	 xmlns="http://www.w3.org/2000/svg" xmlns:xlink="http://www.w3.org/1999/xlink" x="0px" y="0px" viewBox="0 0 60 60"
	 style="enable-background:new 0 0 60 60;" xml:space="preserve">
<style type="text/css">
	.st0{fill:#4186CD;}
	.st1{enable-background:new    ;}
	.st2{fill:#FFFFFF;}
</style>
<path class="st0" d="M57,60H3c-1.6,0-3-1.3-3-3V3c0-1.6,1.4-3,3-3h54c1.7,0,3,1.4,3,3v54C60,58.7,58.7,60,57,60z"/>
<g id="Shape_1_1_" class="st1">
	<g id="Shape_1">
		<g>
			<path class="st2" d="M24.5,31.7c4.2,0,2.5,0,6.6,0c0-1.8-0.4-2.5-0.7-2.5c-4.2,0-0.9,0-5.7,0c0-0.2,0.2-4.2,0.3-7.8h5.4
				c0.1-1.3-0.2-2.5-0.8-2.6c-7.4,0-2.9,0-9.7,0c0.1-0.6,0.3-1.3,0.5-1.9c0.3-1,0.7-2,0.8-2.3c-0.1-0.1-0.4,0-1,0.1
				c-0.7,0.2-1.1,0.4-1.6,0.9c-0.3,0.3-0.5,0.6-0.7,1c-0.6,1.5-1.9,5.8-3.5,8.7c2.5-0.1,3.7-1.6,4.1-2.7c0.2-0.4,0.3-0.8,0.4-1.2
				c1.1,0,1.9,0,3.3,0c0,1.4,0,4.2-0.3,7.9c-2.9,0-4.3,0-5.9,0c-0.9,0.2-1.3,1.6-1.5,2.5c0,0,0,0,0,0c3.8,0,3.1,0,7.1,0
				c-0.2,1.4-0.2,2-0.8,4c-1,3-2.5,5.3-4.6,7.4c-0.6,0.6-1.4,1.3-2.1,1.9c0,0,0,0.1-0.1,0.1c0.7,0.6,3.3,0,3.9-0.2
				c0.5-0.2,1-0.3,1.3-0.6c1.4-1.2,3-3.8,4.1-7.6c3.9,4.5,4.7,5.8,5.7,7h0.1c0.3-1.1,0.5-2.9,0.1-3.8c0-0.1-0.1-0.3-0.2-0.4
				c-1.9-2.3-1.9-2.3-4-4.6c-1.2,1-1.5,1.2-1.5,1.2s0.3-1.1,0.4-1.5C24.4,33.4,24.4,32.9,24.5,31.7z M45.4,18.4c-6.2,0-5,0-12.3,0
				c-0.2,0-0.4,0.1-0.4,0.3c0,13.9,0,1.9,0,23c0,0.1,0.1,0.3,0.4,0.3c1.4,0,1.6,0,1.9,0c0.1,0,0.3,1.3,0.8,2.6
				c2.7-1.7,3.8-2.5,4.4-2.6c1.7,0,4.8,0,5.1,0c0.1,0,0.3-0.2,0.3-0.3c0-15.3,0-7.3,0-23C45.7,18.5,45.5,18.4,45.4,18.4z M43.1,39.3
				c0,0.1-0.1,0.2-0.2,0.2c-0.2,0-1.6,0-2.6,0c0,0-0.1,0-0.1,0.1c-0.6,0.4-1.6,1.1-3.2,2c-0.3-0.9-0.5-2.1-0.6-2.1
				c-0.2,0,0.1,0-0.8,0c-0.1,0-0.2-0.1-0.2-0.2c0-12.8,0-9.8,0-18.2c0-0.1,0.1-0.2,0.2-0.2c4.4,0,3.6,0,7.3,0c0.1,0,0.2,0.1,0.2,0.2
				C43.1,30.7,43.1,30,43.1,39.3z"/>
		</g>
	</g>
</g>
</svg>
