<?xml version="1.0" encoding="utf-8"?>
<!-- Generator: Adobe Illustrator 21.0.0, SVG Export Plug-In . SVG Version: 6.00 Build 0)  -->
<svg version="1.1" id="Layer_1" xmlns="http://www.w3.org/2000/svg" xmlns:xlink="http://www.w3.org/1999/xlink" x="0px" y="0px"
	 viewBox="0 0 512 512" style="enable-background:new 0 0 512 512;" xml:space="preserve">
<style type="text/css">
	.st0{enable-background:new    ;}
	.st1{fill:#1B78D7;}
</style>
<g id="Shape_1_1_" class="st0">
	<g id="Shape_1">
		<g>
			<path class="st1" d="M150.2,115.1c4.6,18.1,12.3,32.6,25.1,42.4c5.9,4.5,15.4,10.8,27.1,8.8c27.2-4.6,40.1-25,46.5-50.2
				c10.1-39.8-8.6-81.6-35.1-92.6c-4.7-2-10.1-2.6-16.9-2.6c-1.8,0.3-3.7,0.5-5.5,0.8c-4.3,1.3-8.4,2.8-12,4.9
				c-17.5,10.6-26,29.8-30.6,53.4c-1,5.2-1.5,12.7-0.6,18.3C149.3,104.4,148.9,109.6,150.2,115.1z M321,170.6
				c16.6,3.4,29.9-5.5,38.5-12.4c14.5-11.6,24.3-31.2,28.5-53c5.5-28.8-14.9-56.3-30.4-66.3c-5.8-3.8-12.1-7.6-21.8-7.5
				c-1.7,0.2-3.4,0.4-5.1,0.6c-3.2,1.2-6.4,2.5-9.6,3.7c-17.8,10.3-32.7,28.6-39.4,49.8c-1.5,4.9-2,10-2.9,15.7
				c-1.2,7.3-0.4,17.7,0.8,23.9C284.5,151.5,295,165.2,321,170.6z M97.3,269.5c26.1-4.4,40.8-16.3,48.1-39.2
				c3.7-11.7,6.1-37.5,2.4-51.6c-6.4-23.8-27.9-50.5-58.3-50c-2.2,0.3-4.3,0.5-6.5,0.8c-3.8,0.8-8,2.3-11,4.1
				c-17.7,10.4-26.3,30.1-31.2,53.2c-7,33,8.2,63.1,27.5,75.7C74.6,266.6,85.2,271.5,97.3,269.5z M469.9,210
				c-8.2-27.3-24.3-46.6-60.4-46.1c-2.2,0.3-4.4,0.5-6.7,0.8c-3,0.8-6,1.7-9,2.6c-13.6,5.5-22.1,17.2-26.7,31.6
				c-2.4,7.5-2.7,15.8-4.1,24.5v21.4c1.3,8.3,0.8,15.4,2.9,22.4c6.7,21.3,18.7,29.1,42.6,33.4c7.5,1.4,17.9,1.2,24.9-0.6
				c21.8-5.7,31.6-20.2,36.7-42.6c1.4-6.3,0.4-12.7,1.6-19.8C473.1,228.8,472,216.9,469.9,210z M398.5,337.8
				c-11-8.7-20.5-19.3-30.8-28.7c-7-6.4-14.5-13.4-20.4-20.8c-7.9-9.9-17-19-24.1-29.6c-7.6-11.4-15.5-23.1-26.5-31
				c-12.8-9.2-25.7-16.1-48.3-15.7c-4.5,1.8-10,1.2-14.3,2.6c-12.6,3.8-22.3,10.2-31.4,17.5c-9.5,7.5-14.9,18.9-22,29
				c-5.9,8.5-13.5,15.5-19.8,23.4c-2.9,3.1-5.9,6.1-8.8,9.2c-9.2,7.4-17.2,16.6-26.5,23.9c-20.8,16.5-35.4,27.7-49.1,51.8
				c-19,33.5-1.8,83.6,20.2,101.3c7.5,6.1,16.7,11.2,27.5,13.9c5.3,1.3,11.3,0.8,17.3,1.8h9.4c4.5,0.7,11,0.5,15.3-0.2
				c3.1-0.1,6.3-0.3,9.4-0.4c9.3-1.5,18.5-1.4,27.3-3.1c10.1-2,19.9-3.7,30.4-5.7c4.3-0.3,8.5-0.5,12.8-0.8l12.4-0.2
				c9.4,1.6,18.5,1.3,27.1,3.1c8.7,2.4,17.4,4.7,26.1,7.1c6.4,1.2,12.8,2.4,19.2,3.5c25.8,5,56.7,0.2,73-9.6
				c8-4.8,14.8-11.1,20-18.6c13-18.7,21.1-57.6,9.6-84C425.7,359.5,412.7,349.1,398.5,337.8z M238.3,448.7c0,0-25.8,0-39.2,0
				c-9.1,0-24.7,1.5-32.4-0.6c-23.1-6.2-35.8-21.4-40.8-45.9c-1.2-6-1.9-14.7-0.8-21.6c0.8-4.8,1.4-8.7,2.9-12.6
				c7.7-18.6,22.3-32.5,44.7-36.3c11.8-0.1,23.7-0.1,35.5-0.2c0.2-0.1,0.4-0.1,0.6-0.2c0.1-14.2,0.3-28.4,0.4-42.6
				c0.3-0.2,0.7-0.4,1-0.6c9.2,0.1,28.1,0.4,28.1,0.4L238.3,448.7z M360.2,448.7c0,0-25.7,0-39.4,0c-22.6,0-43.2,2.3-54.7-9
				c-10.8-10.6-10-24-10-45.3c0.1-19.9,0-60,0-60h30.4v63c0,0-0.8,15.6,2.2,19.8c4.2,6.1,14.6,4.9,24.9,4.9
				c5.4-0.1,16.7-0.2,16.7-0.2v-87.5h30L360.2,448.7L360.2,448.7z M157.1,377c-6.3,20.2,2.1,39.2,18.1,44.2
				c4.1,1.3,10.1,0.8,15.3,0.8c11.6-0.1,17.3,0,17.3,0v-63.4c0,0-19.4-0.1-28.8-0.2C172.9,359.4,160.8,365.2,157.1,377z"/>
		</g>
	</g>
</g>
</svg>
