<?xml version="1.0" encoding="utf-8"?>
<!-- Generator: Adobe Illustrator 21.0.0, SVG Export Plug-In . SVG Version: 6.00 Build 0)  -->
<svg version="1.1" id="Layer_1" xmlns="http://www.w3.org/2000/svg" xmlns:xlink="http://www.w3.org/1999/xlink" x="0px" y="0px"
	 viewBox="0 0 512 512" style="enable-background:new 0 0 512 512;" xml:space="preserve">
<style type="text/css">
	.st0{fill:#4285F4;}
	.st1{fill:#34A853;}
	.st2{fill:#FBBC05;}
	.st3{fill:#EA4335;}
	.st4{fill:none;}
</style>
<g>
	<path class="st0" d="M482.2,261.6c0-16.7-1.5-32.8-4.3-48.3H255.7v91.3h127c-5.5,29.5-22.1,54.5-47.1,71.2v59.2h76.3
		C456.5,394,482.2,333.5,482.2,261.6z"/>
	<path class="st1" d="M255.7,492.3c63.7,0,117.1-21.1,156.2-57.2l-76.3-59.2c-21.1,14.2-48.2,22.5-79.9,22.5
		c-61.5,0-113.5-41.5-132.1-97.3H44.8v61.1C83.6,439.4,163.4,492.3,255.7,492.3z"/>
	<path class="st2" d="M123.6,301.1c-4.7-14.2-7.4-29.3-7.4-44.8s2.7-30.7,7.4-44.8v-61.2H44.8c-16,31.9-25.1,67.9-25.1,106
		s9.1,74.1,25.1,106L123.6,301.1z"/>
	<path class="st3" d="M255.7,114.1c34.7,0,65.8,11.9,90.2,35.3l67.7-67.7c-40.9-38.1-94.3-61.5-157.9-61.5
		c-92.2,0-172.1,52.9-210.9,130l78.8,61.2C142.2,155.7,194.2,114.1,255.7,114.1z"/>
	<path class="st4" d="M19.7,20.3h472v472h-472V20.3z"/>
</g>
</svg>
